<svg xmlns="http://www.w3.org/2000/svg" viewBox="0 0 633.242 1678.676"><path d="M353.734 1678.23c-.773-.464-2.677-1.31-4.23-1.88-8.501-3.12-8.471-2.979-9.361-44.119-.46-21.266-.936-36.336-2.843-90-.284-7.992-.857-22.547-1.273-32.343-.417-9.797-.753-19.078-.748-20.625.028-7.834-1.48-56.441-2.677-86.25-1.598-39.82-3.093-80.504-3.704-100.782-.88-29.26-1.492-44.596-1.887-47.343-.223-1.547-.644-13.57-.938-26.72-.293-13.147-.935-33.187-1.426-44.53-.49-11.344-1.108-26.953-1.371-34.688-.852-25.004-2.33-58-2.814-62.812-.26-2.578-.685-8.485-.945-13.125-.26-4.641-.936-12.526-1.502-17.523-.565-4.997-1.092-10.693-1.17-12.657-.206-5.185-2.562-5.043-17.815 1.078-15.206 6.102-19.588 7.064-22.043 4.842-2.738-2.478-18.012-7.276-21.045-6.612-1.891.414-3.614-.051-6.094-1.643-1.902-1.22-4.301-2.674-5.333-3.23-1.03-.555-2.004-1.871-2.161-2.925-.158-1.054-1.107-2.658-2.11-3.565-2.603-2.356-2.382-8.375.518-14.09 1.286-2.537 2.341-5.513 2.343-6.614.004-1.948 3.513-5.03 5.727-5.03.606 0 3.046-1.189 5.424-2.642 4.032-2.465 9.965-4.707 16.442-6.214 1.51-.351 6.007-2.13 9.993-3.951l7.246-3.313.632-6.292c1.3-12.95.916-36.31-.637-38.68-1.174-1.792-1.358-4.523-1.003-14.849.752-21.889.67-24.69-.907-30.934-.847-3.352-2.194-10.313-2.994-15.469-.8-5.156-2.125-12.75-2.944-16.875s-1.67-11.508-1.893-16.406c-1.464-32.237-2.603-47.664-3.8-51.478-.891-2.836-1.334-8.298-1.3-16.022.052-12.027-1.23-19.653-6.539-38.906-1.137-4.125-2.496-9.188-3.02-11.25-.524-2.063-1.286-4.805-1.693-6.094-3.329-10.541-4.152-16.777-3.714-28.125.856-22.156-.16-43.737-2.671-56.719-.499-2.578-1.393-10.383-1.988-17.344-.595-6.96-1.759-14.976-2.587-17.812-.829-2.836-1.607-9.164-1.73-14.063-.617-24.67-2.96-46.957-5.073-48.263-.963-.595-3.088 5.951-5.625 17.326-1.093 4.898-2.591 11.016-3.33 13.594-1.768 6.167-6.064 23.618-6.694 27.187-.273 1.547-1.506 6.089-2.74 10.093-1.234 4.004-2.626 9.488-3.093 12.187-.467 2.7-1.77 9.126-2.896 14.283-1.126 5.156-2.837 14.437-3.802 20.625-.966 6.187-3.063 16.734-4.66 23.437-3.497 14.669-4.067 17.305-6.045 27.932-.844 4.534-1.935 9.297-2.424 10.583-.808 2.127-3.384 13.45-9.898 43.516-1.284 5.93-2.917 12.891-3.629 15.47-1.362 4.937-4.043 17.357-9.815 45.468-1.241 6.044-4.542 20.783-6.613 29.531-.976 4.125-2.906 12.985-4.288 19.688-1.382 6.703-4.15 19.148-6.153 27.656a5884.723 5884.723 0 00-8.82 37.969c-.707 3.093-2.558 11.109-4.112 17.812-1.555 6.703-3.286 14.719-3.849 17.813-1.152 6.337-3.996 18.982-6.01 26.718-.738 2.836-2.26 10.008-3.381 15.938-1.122 5.93-2.785 13.945-3.697 17.812a942.568 942.568 0 00-3.177 14.063c-1.777 8.215-7.587 34.321-9.599 43.125-2.894 12.667-5.16 23.203-6.449 30-.734 3.867-2.366 11.25-3.626 16.406-1.261 5.156-2.783 11.906-3.383 15-.6 3.094-2.307 10.899-3.793 17.344a3308.66 3308.66 0 00-5.194 22.969c-1.37 6.187-3.032 13.148-3.693 15.468-.66 2.32-1.938 7.805-2.838 12.188-.9 4.383-2.69 12.61-3.98 18.281-1.289 5.672-2.525 11.367-2.747 12.656-.635 3.685-4.014 19.246-6.413 29.532a1593.875 1593.875 0 00-4.23 18.75c-1.123 5.156-3.278 14.226-4.788 20.156-1.51 5.93-3.386 13.945-4.169 17.812-1.596 7.887-6.378 28.008-8.355 35.157-.713 2.578-1.798 8.484-2.413 13.125-1.044 7.889-2.797 17.13-6.223 32.812-.789 3.61-1.373 7.617-1.298 8.906.867 14.937-2.225 23.634-9.289 26.13-5.622 1.987-18.471 2.517-20.383.842-2.355-2.065-7.745-4.692-11.009-5.366-2.368-.488-2.933-1.168-3.575-4.296-.42-2.044-1.116-4.863-1.548-6.265-.432-1.402-.441-4.144-.02-6.094 2.761-12.758 5.968-26.798 7.127-31.2 1.35-5.13 1.978-8.137 4.503-21.563.727-3.867 2.176-10.617 3.22-15 1.043-4.383 2.172-9.445 2.508-11.25.336-1.805 1.81-8.344 3.275-14.531 3.992-16.853 7.984-34.423 12.57-55.313 2.263-10.312 6.695-30.351 9.849-44.531s6.992-31.477 8.53-38.438c4.362-19.742 7.48-33.397 9.954-43.593 2.536-10.452 4.283-18.09 5.898-25.782.596-2.836 1.674-7.898 2.396-11.25.722-3.351 2.164-10.523 3.205-15.937 1.04-5.414 2.482-12.164 3.204-15 .723-2.836 1.817-7.899 2.433-11.25.615-3.352 2.532-12 4.26-19.219 1.727-7.219 3.617-15.445 4.201-18.281.584-2.836 1.453-6.633 1.931-8.438 1.178-4.44 5.574-24.35 7.038-31.875 2.223-11.427 5.128-24.828 7.926-36.562 1.536-6.445 3.645-15.727 4.685-20.625 1.04-4.899 2.732-12.07 3.759-15.938 1.026-3.867 2.485-10.406 3.24-14.53.756-4.126 2.044-10.454 2.864-14.063.82-3.61 2.503-11.203 3.742-16.875 1.24-5.672 3.121-14.11 4.183-18.75 1.062-4.641 3.177-14.344 4.701-21.563 4.368-20.691 7.462-34.826 9.954-45.469 1.268-5.414 3.558-15.75 5.089-22.968 1.53-7.22 3.43-15.868 4.219-19.22.79-3.35 2.885-13.38 4.655-22.285 1.771-8.906 3.413-16.505 3.65-16.887.236-.383 1.546-6.385 2.91-13.34a2900.082 2900.082 0 015.308-26.237l4.094-19.688c3.505-16.859 11.89-53.536 13.611-59.53 1.041-3.628 5.838-24.508 8.4-36.563 1.095-5.157 2.61-11.696 3.365-14.532 1.715-6.436 3.92-15.495 5.705-23.437 9.973-44.364 12.144-54.574 13.954-65.625.718-4.383 2.205-11.766 3.303-16.406 1.1-4.641 2.327-9.914 2.73-11.72.403-1.804 2.309-10.241 4.235-18.75l3.502-15.468-1.18-9.375c-.648-5.156-1.132-10.64-1.075-12.187.057-1.547-.937-9.54-2.208-17.76-1.374-8.887-2.309-18.962-2.305-24.845.004-5.442-.446-13.27-.998-17.395s-1.803-13.407-2.78-20.625c-.977-7.22-2.244-19.875-2.816-28.125-.571-8.25-1.898-18.959-2.947-23.796-3.903-17.998-1.342-27.422 7.783-28.632 2.54-.337 8.158-1.862 12.485-3.39 9.705-3.425 10.521-3.423 24.423.047l11.25 2.808 1.652-1.996c.91-1.099 1.894-3.104 2.19-4.457.294-1.353 1.347-5.73 2.338-9.726 2.084-8.402 2.677-61.628.854-76.64-2.71-22.316-1.616-51.858 2.124-57.388 1.671-2.47 6.366-7.22 10.743-10.87l3.027-2.523-1.383-13.125c-2.654-25.189-.32-32.344 10.555-32.344 1.98 0 6.114-.665 9.187-1.479 20.616-5.457 26.971 4.224 31.928 48.635.559 5.01.812 5.478 3.232 5.962 7.028 1.406 14.37 17.938 17.21 38.757.317 2.32 1.616 8.86 2.888 14.532 2.932 13.084 5.01 25.009 6.123 35.156.482 4.383 1.54 10.922 2.35 14.531.812 3.61 1.843 8.697 2.291 11.305.449 2.608 1.477 7.038 2.285 9.844.808 2.806 2.294 9.109 3.303 14.007 1.009 4.899 2.452 11.649 3.208 15 .756 3.352 2.303 10.313 3.438 15.47 1.136 5.155 2.585 10.218 3.222 11.25.636 1.03 1.434 3 1.773 4.375.567 2.306 1.326 2.655 9.757 4.48 5.028 1.089 11.885 2.646 15.236 3.461 3.352.815 8.836 2.118 12.188 2.896 3.351.777 10.945 2.673 16.875 4.212a3248.27 3248.27 0 0018.281 4.687c4.125 1.04 9.61 2.547 12.187 3.35 2.579.805 7.765 1.743 11.526 2.085 8.683.79 9.944 2.247 10.135 11.703.176 8.672 2.912 41.148 4.266 50.625.589 4.125 1.06 8.344 1.045 9.375-.066 4.686 2.697 35.603 3.58 40.044 1.047 5.277 1.768 12.08 4.05 38.237.787 9.024 1.88 19.36 2.429 22.97 1.95 12.835 8.57 75.434 10.857 102.655 2.185 26.022 3.56 40.795 6.064 65.157.583 5.672 1.228 13.652 1.432 17.734.205 4.082.786 9.777 1.292 12.656.506 2.88 1.363 11.14 1.904 18.36 1.454 19.384 3.484 39.57 4.077 40.529.286.462.8 5.454 1.142 11.093.342 5.639.877 10.673 1.188 11.187.311.513.846 5.787 1.187 11.718.342 5.932 1.314 16.27 2.16 22.973.845 6.703 2.392 19.992 3.436 29.53 2.125 19.405 2.093 19.106 4.669 43.126 1.023 9.539 2.46 21.984 3.192 27.656.733 5.672 1.823 14.531 2.423 19.688.6 5.156 1.455 10.302 1.899 11.436l.807 2.061 6.593-1.827c8.139-2.255 9.302-2.25 12.241.048 1.29 1.009 3.73 1.843 5.422 1.855 2.515.017 3.434.622 5.015 3.302 2.218 3.759 2.061 3.7 5.356 1.986 17.57-9.145 43.428-1.03 32.254 10.122-.387.386-1.13 2.22-1.653 4.076-.675 2.402-1.628 3.556-3.304 4.004-2.269.607-8.635 3.585-14.496 6.78-2.715 1.48-4.935 2.495-16.743 7.652-4.534 1.98-5.364 2.686-4.753 4.045.407.906.917 5.591 1.134 10.412l.393 8.765-3.14 3.306c-7.019 7.389-14.198 7.824-26.251 1.591-1.418-.733-3.588-1.333-4.823-1.333-1.235 0-3.049-.902-4.031-2.004-4.308-4.836-8.982-5.199-17.255-1.341-6.528 3.045-6.701 3.209-5.577 5.31 1.281 2.393 4.239 18.074 5.112 27.097.374 3.868 1.044 7.726 1.49 8.574.446.848 1.425 4.856 2.175 8.906.75 4.05 2.25 12.005 3.33 17.677 1.082 5.671 2.564 13.898 3.295 18.28 2.426 14.55 6.98 39.751 8.384 46.407.762 3.61 2.476 12.89 3.81 20.625 2.65 15.377 4.562 25.09 6.64 33.75.743 3.094 1.745 8.367 2.226 11.719.482 3.351 1.748 10.312 2.814 15.469 1.066 5.156 2.377 11.695 2.914 14.53.537 2.837 1.826 8.954 2.865 13.595 1.04 4.64 2.256 10.757 2.703 13.593.448 2.836 1.724 9.797 2.837 15.47 1.112 5.671 2.344 12.632 2.737 15.468.392 2.836 1.407 8.531 2.254 12.656a2809.05 2809.05 0 013.03 15c.82 4.125 2.088 10.118 2.819 13.318.731 3.2 1.33 7.022 1.33 8.495 0 1.473.849 5.919 1.886 9.88 1.038 3.96 2.9 12.372 4.139 18.692 1.239 6.32 2.462 12.545 2.718 13.834.256 1.289 2.24 10.57 4.407 20.625 2.168 10.055 4.346 20.812 4.839 23.906.493 3.094 1.469 7.945 2.168 10.781 1.048 4.256 3.334 15.4 8.361 40.782.307 1.547 1.58 8.508 2.83 15.468 1.25 6.961 3.356 18.444 4.68 25.519 3.239 17.292 2.075 23.064-4.935 24.466-3.77.754-7.656 4.174-7.656 6.739 0 2.699-2.535 3.692-6.03 2.363-3.73-1.418-7.095-1.207-7.095.445 0 2.328-5.336 1.787-6.938-.703-3.16-4.915-9.155-30.184-13.623-57.422-2.114-12.891-5.325-31.875-7.134-42.188-1.81-10.312-4.123-23.538-5.141-29.39-1.018-5.852-1.865-13.235-1.882-16.406-.018-3.387-.812-7.894-1.925-10.923-2.427-6.606-5.906-20.18-7.33-28.593-.61-3.61-2.321-12.047-3.803-18.75-2.85-12.888-8.634-42.727-10.724-55.313-1.38-8.31-6.186-32.868-8.99-45.937-.996-4.641-2.068-10.125-2.382-12.188-.314-2.062-1.173-6.301-1.908-9.42-.735-3.117-2.384-11.766-3.665-19.218-2.45-14.262-4.345-24.235-6.672-35.112-.772-3.61-2.233-11.376-3.247-17.26-1.013-5.883-2.224-11.156-2.69-11.718-.466-.562-1.495-4.397-2.286-8.522-.79-4.125-2.985-14.883-4.876-23.906-1.891-9.024-3.762-18.727-4.158-21.563-.396-2.836-1.16-6.422-1.7-7.968-.538-1.547-2.302-10.407-3.92-19.688-1.619-9.281-3.758-19.925-4.755-23.652-.998-3.727-1.813-8.192-1.813-9.922 0-5.007-.818-4.977-13.125.488-2.836 1.259-6.844 2.969-8.907 3.799-4.712 1.898-25.15 10.04-37.5 14.941-28.138 11.167-26.269 9.995-24.385 15.286 4.871 13.68-8.452 31.859-19.922 27.182-.897-.366-4.372-1.04-7.724-1.498a658.531 658.531 0 01-11.693-1.723c-7.252-1.152-7.57 1.711-5.874 52.912 1.46 44.1 2.594 73.609 3.476 90.468.5 9.54 1.137 25.581 1.418 35.649.636 22.828 2.077 60.062 3.3 85.289.914 18.815 2.718 62 4.662 111.562.536 13.664 1.404 33.703 1.929 44.532.525 10.828 1.139 25.172 1.365 31.875 1.024 30.393 1.663 47.164 1.93 50.625.16 2.062.526 11.976.815 22.03 1.724 59.97 3.218 92.806 4.288 94.22 3.056 4.036.584 16.203-3.74 18.411-.774.395-2.884 1.382-4.688 2.193-1.805.81-5.387 3.018-7.96 4.905-2.573 1.886-5.526 3.509-6.562 3.605-1.037.097-3.15.434-4.697.75-1.547.314-3.445.193-4.219-.272zm16.884-16.155l8.703-5.782-.608-18.359c-.334-10.097-.801-22.578-1.038-27.734-.77-16.738-2.38-63.306-2.808-81.265-.23-9.634-.641-20.603-.914-24.375-.272-3.773-.776-15.508-1.119-26.079-.343-10.57-.724-20.695-.846-22.5-.436-6.43-2.377-53.392-3.254-78.75-1.22-35.23-2.642-70.086-3.73-91.406-1.846-36.161-2.319-46.908-2.124-48.281.11-.773-.21-3.305-.712-5.625-.501-2.32-1.122-17.719-1.38-34.219-.436-27.968-.853-37.03-3.273-71.25-.51-7.219-1.18-24.094-1.488-37.5-.674-29.385-1.06-32.703-3.847-33.1-2.415-.345-3.496 3.11-3.364 10.756.16 9.346-4.59 10.286-6.138 1.215-.526-3.08-1.308-4.45-3.03-5.31l-2.32-1.158-.278 12.861c-.153 7.074-.018 14.289.3 16.034l.579 3.172 3.542-3.459 3.543-3.459 3.452 1.646c3.837 1.83 4.017 2.322 4.674 12.823.799 12.743-7.028 15.065-13.226 3.924-.572-1.026-1.357-1.549-1.746-1.16-1.15 1.151 1.156 68.042 2.398 69.539.804.968.803 1.457-.005 1.956-.758.468-.9 3.333-.48 9.692.89 13.516 3.439 77.342 5.681 142.32.288 8.342.936 22.897 1.44 32.344 1.073 20.102 2.796 69.906 3.254 94.052.176 9.28.562 22.359.858 29.062 1.265 28.694 2.45 57.988 3.338 82.5.523 14.438 1.156 30.89 1.406 36.563.25 5.672.903 21.914 1.45 36.093 1.354 35.098.132 32.84 13.11 24.219zm-3.335-16.967c-.25-.653-.63-7.93-.842-16.172-.584-22.599-1.665-31.82-4.12-35.141l-2.053-2.777.148-68.69c.147-68.113-.087-78.328-2.04-89.101-.557-3.069-.83-6.06-.608-6.647.757-1.995-1.335-14.182-2.828-16.483-1.225-1.887-1.542-6.18-1.799-24.375-.54-38.156-1.168-56.45-2.285-66.556-.645-5.83-.842-14.733-.487-22.031.328-6.736.553-15.544.5-19.574-.053-4.03.37-10.147.938-13.594.569-3.447 1.373-11.446 1.787-17.777.671-10.248 1.847-14.752 3.435-13.163 1.826 1.825 1.83 13.752.012 30.298-1.6 14.552-2.132 41.778-1.138 58.125.314 5.156 1.018 20.766 1.565 34.688.546 13.922 1.202 26.367 1.456 27.656.254 1.289.069 5.437-.41 9.217-.78 6.143-.62 7.735 1.512 15 1.411 4.81 2.486 11.06 2.632 15.313.136 3.953.949 9.297 1.805 11.876 1.26 3.79 1.392 5.915.692 11.094-.61 4.51-.464 10.706.493 20.937.786 8.408 1.121 18.088.794 22.97-.41 6.122-1.701 81.058-1.55 90 .047 2.864 1.952 8.884 3.766 11.907 1.806 3.009 2.026 4.434 1.654 10.73-.296 5.027 0 8.429.963 11.06 1.397 3.818 1.19 27.035-.274 30.85-.7 1.826-3.068 2.054-3.718.36zm-20.466-425.802c-2.156-3.292-2.44-14.99-.467-19.262 3.023-6.543 3.923-11.037 3.229-16.129-.636-4.663-1.3-18.19-1.38-28.133-.02-2.43-.697-6-1.505-7.935-1.22-2.92-1.301-4.633-.48-10.113.544-3.628 1.088-8.913 1.208-11.744.167-3.933.584-5.217 1.77-5.442 2.76-.524 4.043 5.6 2.721 12.995-.855 4.785-.87 7.197-.06 9.926.957 3.23 2.762 29.484 3.212 46.731.104 4.003.835 8.024 1.872 10.308 5.325 11.722-3.732 28.546-10.12 18.798zm266.13 263.87c2.501-2.764 1.342-18.1-1.904-25.19-1.27-2.774-2.309-6.164-2.309-7.534 0-9.186-3.954-29.755-6.613-34.403-2.112-3.691-3.062-6.966-3.82-13.17-.556-4.542-1.809-10.282-2.784-12.756-.975-2.473-2.222-7.546-2.772-11.273-.55-3.726-1.56-8.884-2.247-11.462-.686-2.578-1.487-8.106-1.778-12.283-.313-4.484-1.561-10.629-3.046-15-1.74-5.12-2.719-10.442-3.174-17.249-.363-5.414-1.526-13.007-2.586-16.875-1.06-3.867-2.598-10.647-3.417-15.068-.82-4.42-2.55-11.376-3.845-15.457-1.295-4.081-2.355-8.634-2.355-10.117 0-7.124-5.545-37.06-10.217-55.158-1.555-6.027-3.113-13.198-3.462-15.938-.348-2.74-1.015-5.464-1.48-6.056-.467-.591-1.219-4.177-1.671-7.968-.453-3.792-1.51-9.003-2.35-11.581-1.713-5.257-5.429-31.208-4.65-32.469 2.233-3.612 5.114 3.407 6.97 16.982.599 4.373 1.508 8.736 2.021 9.695.513.959 1.72 6.451 2.681 12.205.961 5.754 2.772 14.68 4.025 19.837 4.538 18.682 5.226 21.692 6.756 29.53.855 4.384 2.56 12.821 3.788 18.75 1.228 5.93 2.243 12.66 2.255 14.957.011 2.296 1.269 8.203 2.794 13.125 1.525 4.923 3.63 13.802 4.677 19.731 1.047 5.93 2.588 13.102 3.425 15.938.837 2.836 1.6 8.531 1.696 12.656.125 5.336.936 9.8 2.81 15.469 1.47 4.44 2.946 11.52 3.336 15.99.385 4.413 1.358 10.109 2.163 12.657.805 2.549 1.74 7.376 2.078 10.728.337 3.352 1.458 7.992 2.49 10.312 1.031 2.32 2.24 7.594 2.686 11.72.854 7.892 2.081 12.225 4.78 16.874.898 1.547 2.303 6.82 3.123 11.719.82 4.898 1.885 10.805 2.366 13.125.482 2.32 1.144 6.96 1.471 10.312.328 3.352 1.404 7.69 2.392 9.639.988 1.95 1.797 4.937 1.797 6.64 0 4.51 1.994 13.721 2.971 13.721 1.864 0 1.878-3.37.048-11.09-1.06-4.471-2.19-10.238-2.512-12.816-.322-2.578-1.208-7.43-1.967-10.781-.76-3.352-2.467-12.8-3.794-20.998-1.326-8.197-2.592-15.375-2.813-15.95-.22-.575-1.428-6.736-2.683-13.69-2.166-12.007-5.354-28.577-8.475-44.05-.78-3.867-1.852-9.773-2.382-13.125-.53-3.351-1.988-10.523-3.238-15.937s-4.215-19.969-6.59-32.344c-2.376-12.375-5.324-27.14-6.553-32.812-2.218-10.238-9.471-47.396-15.92-81.563-1.85-9.797-4.4-23.297-5.67-30-5.525-29.164-8.04-42.554-8.98-47.812-.552-3.094-1.336-6.891-1.74-8.438-.404-1.547-1.464-7.031-2.356-12.187-.892-5.157-3.024-16.336-4.739-24.844-1.715-8.508-3.981-20.32-5.036-26.25-4.975-27.959-7.585-40.575-9.364-45.252l-.987-2.595-5.196 2.932c-3.617 2.042-6.045 2.809-7.986 2.524-1.62-.238-2.788.014-2.788.6 0 1.918 2.704 15.136 3.569 17.444.477 1.274 1.153 4.847 1.502 7.94 1.256 11.14 10.768 60.895 13.786 72.113l.988 3.675 1.736-3.876c4.19-9.36 12.169-2.963 12.169 9.756 0 6.727-7.198 11.106-9.844 5.989-3.55-6.867-2.916.622 2.307 27.187 1.976 10.055 4.291 22.079 5.144 26.72.853 4.64 1.964 10.335 2.469 12.655.505 2.32 1.796 8.227 2.87 13.125 1.073 4.899 2.282 10.805 2.687 13.125.404 2.32 1.846 9.704 3.205 16.407 2.87 14.151 4.488 22.43 7.055 36.093 1.018 5.415 2.512 12.797 3.322 16.407.81 3.609 2.312 11.203 3.338 16.875 1.026 5.672 2.491 13.054 3.256 16.406.764 3.352 2.64 12.422 4.168 20.156 6.006 30.399 9.183 45.132 12.837 59.531 1.243 4.899 2.874 11.86 3.623 15.47.75 3.609 2.206 10.359 3.236 15 1.03 4.64 2.724 14.021 3.764 20.847 1.04 6.825 3.397 20.536 5.237 30.468 1.84 9.933 3.76 20.59 4.267 23.684 1.6 9.778 2.834 11.429 5.959 7.976zm-79.025-411.757c-.619-.619-1.125-2.226-1.125-3.57 0-1.346-.62-3.266-1.377-4.267-.757-1-1.393-3.507-1.413-5.57-.02-2.062-.484-6.491-1.03-9.843-.835-5.119-2.401-21.759-3.042-32.32-.245-4.031 2.419-4.203 4.756-.306 1.58 2.632 1.864 4.848 1.9 14.813.048 12.818 1.404 23.278 3.587 27.657 3.653 7.329 1.926 17.589-2.256 13.406zm-14.631-63.265c-1.338-1.442-2.436-3.26-2.442-4.038-.006-.779-.245-2.892-.53-4.697-1.084-6.83 7.117-14.604 9.906-9.393 5.934 11.089.27 25.897-6.934 18.128zM33.02 1432.943c3.068-2.582 5.654-9.417 7.58-20.041.573-3.162 1.887-9 2.92-12.975 1.032-3.975 3.083-12.922 4.557-19.883 6.68-31.547 9.775-45.352 13.029-58.125.985-3.867 2.733-12.094 3.883-18.281 1.15-6.188 2.837-14.414 3.746-18.282a1807.85 1807.85 0 003.237-14.062c.87-3.867 2.16-9.563 2.867-12.656.706-3.094 2.817-12.797 4.691-21.563 1.874-8.765 4.416-20.156 5.649-25.312a805.212 805.212 0 004.105-18.282c2.623-12.528 3.713-17.455 5.286-23.906.755-3.094 1.78-7.734 2.28-10.312.498-2.578 1.733-8.063 2.743-12.188 1.01-4.125 2.723-11.297 3.808-15.937 1.084-4.641 3.223-13.711 4.754-20.157 3.078-12.954 8.265-37.078 9.07-42.174.464-2.945.363-3.143-1.02-1.995-.844.7-1.534 2.183-1.534 3.294 0 1.112-.58 2.853-1.287 3.87s-1.585 3.326-1.95 5.13c-.364 1.805-2.528 8.907-4.807 15.782-2.279 6.875-4.144 13.759-4.144 15.296 0 1.538-.496 3.717-1.101 4.843-.606 1.127-1.42 3.525-1.81 5.33-.39 1.804-1.325 6.023-2.079 9.374-.753 3.352-1.183 6.405-.954 6.785.228.38-.038 2.278-.59 4.219-.553 1.94-1.84 9.645-2.86 17.121-2.936 21.539-3.826 24.885-9.577 36.026-1.471 2.85-1.865 5.258-1.74 10.652.2 8.587-1.13 12.933-4.484 14.668-2.9 1.5-4.125 6.873-5.722 25.11-.484 5.528-1.524 11.296-2.312 12.818-.985 1.906-1.398 5.238-1.323 10.69.103 7.592-1.883 18.517-5.39 29.657-.72 2.283-1.308 5.071-1.308 6.196 0 1.124-1.418 3.837-3.151 6.027-2.835 3.582-3.158 4.608-3.22 10.21-.096 8.601-4.495 25.647-7.7 29.834-1.25 1.633-1.48 3.514-1.148 9.375.328 5.782 0 8.563-1.557 13.161-1.086 3.206-1.974 6.467-1.974 7.246 0 1.739-3.426 12.987-5.236 17.19-.73 1.694-1.326 4.987-1.326 7.319 0 3.027-1.34 7.319-4.688 15.006-6.592 15.14-5.917 20.385 1.787 13.902zm-7.34-15.086c2.528-5.447 3.678-9.219 3.678-12.066 0-2.278 1.091-7 2.425-10.491 6.519-17.073 9.237-29.15 8.33-37.012-.478-4.142-.188-6.589 1.286-10.847 2.202-6.364 7.645-28.302 7.65-30.836.002-.945 1.266-4.249 2.81-7.342 1.542-3.094 2.806-6.498 2.808-7.565.002-1.066.644-4.095 1.427-6.73 1.797-6.054 5.106-24.136 5.125-28.01.008-1.61.688-4.774 1.51-7.03.824-2.257 1.852-6.845 2.286-10.197 1.767-13.635 5.72-29.716 8.411-34.218.925-1.547 2.34-5.344 3.146-8.438 4.36-16.753 8.331-33.422 9.043-37.969.444-2.835 1.663-9.164 2.708-14.062 1.045-4.898 2.136-11.86 2.423-15.469.288-3.61 1.113-8.46 1.834-10.781.72-2.32 1.592-5.906 1.937-7.969.994-5.94 7.061-27.577 9.003-32.106.97-2.265 2.418-6.933 3.216-10.373.797-3.44 2.442-8.368 3.654-10.95 3.043-6.483 5.212-13.182 5.25-16.213.018-1.4.827-5.71 1.799-9.577 3.995-15.9 5.522-23.42 6.48-31.915.556-4.921 1.667-10.806 2.468-13.078.802-2.272 1.862-9.004 2.355-14.96.494-5.955 1.347-12.304 1.895-14.11 2.865-9.425 6.708-36.635 5.888-41.69-.376-2.318.228-5.61 1.974-10.746 1.383-4.072 2.642-9.655 2.796-12.406.154-2.75 1.158-7.797 2.23-11.215 1.074-3.417 2.41-9.515 2.972-13.55.985-7.078 2.85-11.642 4.758-11.642.504 0 .916-1.749.916-3.886s1.87-11.735 4.155-21.328 4.835-20.395 5.665-24.005c3.473-15.09 3.964-16.96 4.921-18.75 2.258-4.218 4.946-14.183 4.946-18.334 0-2.436.835-6.269 1.855-8.517 1.02-2.247 1.863-5.332 1.875-6.855.01-1.523 1.248-6.796 2.748-11.719 1.5-4.922 3.213-13.169 3.807-18.325.593-5.156 1.679-11.5 2.413-14.097.734-2.597 2.153-9.347 3.152-15 1-5.653 2.508-12.176 3.35-14.497 3.155-8.68 9.668-33.786 12.04-46.406.775-4.125 1.826-9.187 2.336-11.25.51-2.062 1.424-6.492 2.03-9.844.607-3.351 1.918-7.948 2.913-10.215 1.682-3.83 6.637-30.567 8.435-45.516.431-3.581 1.212-7.59 1.734-8.906 1.487-3.746 3.81-16.062 3.811-20.203 0-2.06.998-6.912 2.216-10.781 3.033-9.633 5.481-23.316 4.782-26.73-.38-1.852.15-4.746 1.542-8.437 1.444-3.828 2.057-7.304 1.925-10.912-.165-4.523.17-5.725 2.303-8.26 2.363-2.808 2.43-3.162 1.277-6.659-1.837-5.567-3.158-4.502-5.015 4.041-.924 4.254-2.45 11.11-3.392 15.235a3252.736 3252.736 0 00-4.192 18.75c-1.364 6.187-3.264 14.203-4.222 17.812-.958 3.61-2.667 11.625-3.798 17.813-1.83 10.008-5.685 27.137-12.66 56.25a2423.202 2423.202 0 00-4.293 18.28c-1.125 4.9-3.202 13.126-4.615 18.282-1.413 5.156-3.057 11.906-3.653 15-.596 3.094-1.906 9.422-2.91 14.063-1.004 4.64-2.47 11.601-3.259 15.468a8124.12 8124.12 0 01-2.88 14.063 1351.994 1351.994 0 00-2.803 14.062c-2.26 11.737-5 23.685-10.316 45-1.549 6.213-9.954 44.03-13.127 59.063-1.252 5.93-3.319 15-4.594 20.156-2.282 9.23-6.078 27.276-8.517 40.493-.685 3.709-1.88 8.771-2.657 11.25-.776 2.479-2.12 8.515-2.986 13.413-.865 4.899-2.324 12.07-3.242 15.938a1070.817 1070.817 0 00-3.215 14.062c-2.806 12.751-4.287 19.11-6.549 28.125-1.229 4.899-3.34 14.18-4.69 20.625-1.351 6.446-3.067 14.04-3.812 16.875-.746 2.836-2.45 10.641-3.789 17.344-1.338 6.703-3.232 15.563-4.209 19.688-.977 4.125-2.626 11.718-3.664 16.875-1.038 5.156-2.575 12.328-3.415 15.937-6.607 28.393-9.768 42.301-10.653 46.875-2.68 13.843-6.686 31.604-9.833 43.594-.744 2.836-1.849 7.898-2.454 11.25-.606 3.352-1.683 8.203-2.392 10.781-.71 2.578-2.505 10.594-3.99 17.813-1.484 7.218-3.379 15.867-4.21 19.218-2.451 9.881-6.87 29.356-10.422 45.938-1.823 8.508-3.966 17.626-4.762 20.262-1.502 4.973-4.208 17.267-6.476 29.425-.722 3.868-1.914 8.72-2.65 10.782-.734 2.062-1.645 5.835-2.023 8.383-.377 2.549-1.503 7.822-2.5 11.719-1.802 7.037-4.812 20.487-8.406 37.554-1.032 4.898-2.301 10.594-2.821 12.656-1.946 7.72-3.791 16.16-5.065 23.173-.723 3.98-1.759 8.065-2.301 9.08-1.32 2.467-1.303 7.897.023 7.078.555-.344 2.665-4.19 4.687-8.549zm287.111-388.248c17.752-7.433 21.939-11.16 6.936-6.177-5.273 1.752-11.697 4.237-14.275 5.522-2.578 1.285-6.27 2.948-8.203 3.696-2.054.795-3.516 1.992-3.516 2.878 0 1.977.77 1.738 19.058-5.92zm-28.744 1.105c1.67-3.299 2.845-4.163 9.686-7.128 6.555-2.84 8.651-3.582 12.689-4.487 2.261-.507 6.421-1.978 9.245-3.27 2.823-1.29 5.694-2.348 6.38-2.348.685 0 2.716-.78 4.513-1.734 1.797-.954 6.22-2.696 9.83-3.871 3.609-1.175 8.882-3.17 11.718-4.435 2.836-1.264 6-2.628 7.031-3.03a216.296 216.296 0 005.16-2.143c1.807-.776 4.65-1.711 6.318-2.077 1.668-.367 3.273-1.056 3.567-1.532.294-.476 1.215-.865 2.045-.865 1.718 0 14.057-5.4 16.192-7.085.773-.61 3.937-2.02 7.031-3.13 3.094-1.112 6.469-2.412 7.5-2.891 1.031-.479 5.46-2.196 9.844-3.817 4.383-1.62 9.867-3.727 12.187-4.68 13.406-5.512 21.46-8.664 24.231-9.483 1.726-.51 4.89-1.9 7.031-3.087 2.142-1.188 5.255-2.454 6.919-2.813 1.663-.36 5.472-1.84 8.465-3.289 2.993-1.45 7.345-3.282 9.671-4.072 2.327-.79 6.29-2.53 8.806-3.869 2.516-1.338 6.507-3.03 8.867-3.76 2.36-.73 9.987-3.711 16.948-6.624 6.96-2.913 13.922-5.679 15.468-6.146 1.547-.467 4.922-1.86 7.5-3.096 2.579-1.236 7.976-3.648 11.994-5.359 15.482-6.593 9.37-7.217-7.057-.72-5.02 1.984-9.352 3.608-9.628 3.608-.276 0-2.076.982-3.999 2.181-1.923 1.2-5.817 2.917-8.653 3.817-2.836.9-8.32 3.13-12.188 4.956-10.64 5.024-12.194 5.652-18.281 7.387-3.094.883-6.159 2.026-6.811 2.54-.652.514-5.082 2.321-9.844 4.015-4.762 1.694-10.345 3.728-12.408 4.52-2.062.792-4.496 1.458-5.409 1.48-.913.023-5.426 1.934-10.03 4.246-4.604 2.312-10.353 4.648-12.776 5.191-2.424.543-5.569 1.816-6.99 2.828-1.421 1.012-3.263 1.84-4.093 1.84-.83 0-2.24.412-3.136.917-2.092 1.18-10.412 4.495-27.35 10.901-7.445 2.815-13.987 5.493-14.54 5.951-1.033.858-6.384 2.912-13.455 5.165-2.217.706-5.1 1.986-6.41 2.843-1.308.857-4.557 2.199-7.22 2.981-2.662.782-6.317 2.18-8.122 3.105-1.804.925-5.812 2.728-8.906 4.007-5.432 2.246-8.401 3.395-22.5 8.705-14.288 5.38-31.165 14.337-31.803 16.877-1.29 5.143 2.269 5.725 4.773.78zm-18.648 1.36c-.2-.604-2-1.663-4-2.355-4.14-1.433-7.04-3.747-7.04-5.614 0-.7-.513-2.094-1.139-3.097-2.178-3.487 3.667-7.936 14.997-11.416 3.464-1.063 7.352-2.5 8.641-3.193 1.29-.692 4.348-2.1 6.797-3.13 3.855-1.618 5.996-3.85 3.695-3.85-1.188 0-16.172 5.536-20.336 7.514-3.28 1.558-10.591 3.844-17.064 5.336-2.857.659-2.081 11.788 1.037 14.88 1.08 1.073 2.7 2.866 3.596 3.985 1.834 2.287 11.547 3.13 10.816.94zm135.188-11.053c1.77-3.309 1.152-10.023-1.173-12.725-4.32-5.023-13.333 1.347-11.611 8.205 1.558 6.208 10.238 9.277 12.784 4.52zm-58.104-3.272c3.867-1.249 9.563-3.505 12.656-5.014 3.094-1.51 6.68-3.06 7.97-3.448 1.288-.386 5.718-2.11 9.843-3.831 4.125-1.72 12.562-5.064 18.75-7.43 6.187-2.365 12.635-4.918 14.329-5.673 1.693-.754 3.734-1.372 4.536-1.372.801 0 4.191-1.265 7.533-2.812 3.342-1.547 6.3-2.813 6.573-2.813.272 0 1.825-.61 3.45-1.357 5.441-2.5 24.257-9.893 25.178-9.893.5 0 3.513-1.204 6.695-2.677 3.182-1.473 6.836-3.001 8.12-3.397 2.331-.718 6.765-2.71 23.252-10.452 4.8-2.254 8.922-4.099 9.159-4.099.237 0 2.06-1.028 4.05-2.284 1.99-1.256 6.095-3.118 9.122-4.138 4.937-1.663 10.47-4.222 14.41-6.664.773-.48 5.202-2.006 9.843-3.392 4.64-1.386 9.373-3.098 10.516-3.804 1.144-.706 4.23-2.131 6.86-3.168 2.63-1.036 7.6-3.167 11.046-4.735 7.497-3.412 8.524-3.849 15.172-6.456 2.836-1.112 6-2.406 7.031-2.876 1.031-.47 4.406-1.705 7.5-2.743 10.486-3.518 13.722-4.773 18.35-7.118 5.527-2.8 6.144-4.679 1.236-3.758-3.368.632-4.803 1.217-18.183 7.414-3.87 1.792-8.3 3.553-9.844 3.913-3.247.756-12.508 4.52-17.468 7.1-1.875.974-4.08 1.772-4.901 1.772-.821 0-4.56 1.422-8.31 3.16-3.75 1.738-8.505 3.695-10.568 4.348-2.062.654-6.492 2.546-9.843 4.205-3.352 1.658-7.265 3.299-8.697 3.644-3.475.84-12.446 4.98-16.952 7.824-2 1.262-5.59 2.846-7.978 3.52-4.184 1.18-12.596 4.562-21.92 8.815-2.45 1.117-5.728 2.286-7.285 2.597-1.558.312-3.06.934-3.337 1.383-.277.449-1.323.816-2.324.816-1 0-1.82.375-1.82.834 0 .458-1.574 1.128-3.498 1.49-1.924.36-6.037 1.834-9.14 3.275-3.104 1.44-7.097 2.931-8.873 3.312-2.945.633-9.288 3.575-27.708 12.852-8.738 4.4-12.059 5.84-18.75 8.129-7.334 2.508-18.746 6.75-28.125 10.456-4.125 1.63-9.187 3.573-11.25 4.32-2.062.745-5.538 2.18-7.724 3.188-2.185 1.008-4.295 1.846-4.687 1.864-.393.018-2.401.847-4.464 1.843-2.062.996-4.305 1.826-4.983 1.843-2.617.067-5.201 2.053-3.815 2.93 1.706 1.08 1.217 1.157 9.267-1.443zm-12.656-21.559c5.156-1.761 12.328-4.278 15.937-5.592 3.61-1.314 7.432-2.398 8.495-2.41 1.062-.01 4.648-1.108 7.968-2.439 3.32-1.33 8.569-3.27 11.662-4.309 3.094-1.039 7.946-2.955 10.782-4.258 2.836-1.303 7.687-3.333 10.781-4.512 3.094-1.179 10.055-3.916 15.469-6.083 5.414-2.167 12.506-4.915 15.76-6.108 3.253-1.193 6.839-2.746 7.968-3.452 1.13-.706 5.217-2.473 9.084-3.928a887.205 887.205 0 0013.762-5.33c3.702-1.478 8.765-3.14 11.25-3.694 2.486-.554 7.262-2.305 10.613-3.891 7.189-3.403 16.11-7.17 27.38-11.557 4.489-1.747 11.71-4.847 16.046-6.888 4.337-2.042 11.211-4.82 15.276-6.176 11.2-3.735 16.514-6.947 17.432-10.538.42-1.644 1.87-3.858 3.223-4.922 1.352-1.064 2.085-1.966 1.629-2.006-5.309-.459-5.307-.455-5.651-10.47-.514-14.92-1.218-22.292-2.327-24.365-.59-1.101-1.206-6.88-1.37-12.844-.382-13.898-1.071-22.504-2.782-34.75-.756-5.413-1.777-14.483-2.268-20.155-.492-5.672-1.725-17.274-2.742-25.782-2.218-18.567-4.011-38.093-4.418-48.12-.164-4.037-.75-9.733-1.305-12.657-1.038-5.48-1.7-11.695-4.163-39.066-.789-8.766-2.274-23.743-3.3-33.282-1.026-9.539-2.333-23.582-2.905-31.207-.57-7.624-1.405-17.117-1.852-21.093-.448-3.977-1.295-12.504-1.882-18.95-.586-6.445-2.116-21-3.398-32.343-2.733-24.163-2.103-18.421-6.326-57.657-1.859-17.273-3.789-33.304-4.288-35.625-1.717-7.975-5.007-40.533-6.49-64.218-.45-7.22-1.668-20.93-2.703-30.47-1.036-9.538-2.36-22.405-2.944-28.593-1.775-18.818-4.982-41.187-6.066-42.31-1.22-1.264-11.673-4.635-16.962-5.471-4.911-.776-21.948-4.54-33.75-7.455-5.156-1.274-12.75-2.986-16.875-3.805-4.125-.82-11.535-2.529-16.466-3.798-4.932-1.27-10.838-2.69-13.125-3.157-2.288-.467-9.222-2.142-15.409-3.721-12.271-3.133-62.673-14.964-78.015-18.313-5.268-1.15-10.33-2.766-11.25-3.592-1.02-.916-2.62-1.318-4.098-1.032-1.335.26-9.338-1.244-17.786-3.34-17.208-4.268-17.511-4.212-15.506 2.822 1.579 5.54 3.687 24.9 5.244 48.172.553 8.25 1.395 17.11 1.872 19.688.477 2.578 1.137 9.539 1.468 15.468.33 5.93.953 12.47 1.384 14.532.43 2.062 1.466 11.976 2.301 22.03.836 10.056 2.14 23.977 2.9 30.938 1.861 17.053 3.813 36.639 5.512 55.313.774 8.508 2.235 22.64 3.247 31.406 1.012 8.766 2.045 19.102 2.296 22.969.25 3.867 1.084 11.883 1.852 17.812.769 5.93 1.877 16.899 2.464 24.375.587 7.477 1.482 16.758 1.99 20.625.508 3.868 1.535 13.36 2.282 21.094 1.456 15.082 2.674 26.84 4.178 40.313.518 4.64 1.369 13.289 1.891 19.218.522 5.93 1.115 11.625 1.317 12.657.65 3.315 1.447 10.657 4.375 40.312 1.578 15.985 3.233 31.997 3.678 35.583.444 3.587.612 6.838.372 7.226-.409.661.496 7.315 2.465 18.129.792 4.352 2.138 18.289 3.251 33.663.258 3.562.887 9.046 1.399 12.187.511 3.142 1.372 11.618 1.913 18.837.54 7.219 1.582 17.133 2.315 22.031.733 4.899 1.397 11.86 1.476 15.47.078 3.609.784 8.882 1.567 11.718.784 2.836 1.535 9.375 1.669 14.531.134 5.156.909 15.281 1.722 22.5 2.47 21.932 6.155 55.672 7.22 66.094.554 5.414 1.609 13.64 2.345 18.281 2.533 15.966-1.173 25.596-5.377 13.971l-1.155-3.194-2.57 2.815c-1.414 1.548-3.017 2.814-3.561 2.814-1.517 0-1.178 2.927.56 4.849 1.94 2.142.985 2.262 12.043-1.515zm-17.13-16.996c2.142-4.014 3.948-5.285 7.002-4.927 4.146.486 3.929-6.888-1.604-54.536-.97-8.349-3.062-27.683-4.719-43.593a1419.814 1419.814 0 00-2.288-20.157c-.721-5.93-1.561-13.945-1.866-17.812-.305-3.867-.952-9.563-1.437-12.656-.485-3.094-1.748-14.907-2.806-26.25-1.06-11.344-2.339-23.578-2.845-27.188-.505-3.61-1.354-10.992-1.885-16.406-.531-5.414-1.354-12.164-1.83-15-.475-2.836-1.525-14.438-2.334-25.781-.809-11.344-1.887-22.946-2.397-25.782-.865-4.817-2.556-19.708-4.737-41.718-3.143-31.728-6.89-66.096-10.169-93.282-.528-4.382-1.405-13.875-1.948-21.093-.542-7.22-1.369-15.657-1.836-18.75-.467-3.094-1.12-9-1.45-13.125-.332-4.125-1.421-14.883-2.422-23.907-1-9.023-2.238-21.468-2.75-27.656-.51-6.187-1.343-14.414-1.85-18.281-.506-3.867-1.365-12.305-1.91-18.75-.543-6.445-1.601-17.203-2.35-23.906-.748-6.703-1.57-15.352-1.826-19.22-.256-3.866-.901-10.616-1.434-15-1.865-15.345-4.735-41.842-6.042-55.78-2.684-28.616-8.663-78.985-9.544-80.411-.67-1.083-7.68-.24-14.263 1.715-4.575 1.358-4.799 1.576-4.799 4.67 0 3.695 1.073 4.065 3.966 1.37 2.973-2.77 5.755-2.328 9.062 1.438 6.498 7.4.58 15.165-8.575 11.25-1.953-.836-2.249 4.137-.754 12.702.487 2.793 1.567 11.195 2.4 18.672 3.148 28.261 2.925 27.501 7.059 24.023 6.17-5.192 10.589-1.984 9.393 6.817-.811 5.97-2.72 7.805-7.745 7.45-4.577-.323-4.456-.637-3.485 9.054.465 4.64 1.465 14.765 2.223 22.5 2.97 30.347 3.507 35.206 4.15 37.613l.668 2.494 1.622-2.475c2.44-3.724 6.303-3.365 9.546.886 5.83 7.645-1.925 18.607-8.732 12.341l-2.291-2.11.661 10.205c.364 5.612 1.052 11.23 1.528 12.483.477 1.253.875 4.677.885 7.608.01 2.931.635 11.025 1.388 17.986.753 6.96 1.377 14.633 1.388 17.048.01 2.416.47 5.58 1.022 7.032l1.004 2.639 2.512-3.056c4.811-5.853 10.48-3.675 10.48 4.026 0 8.056-3.211 10.518-9.03 6.922l-3.157-1.951v4.37c0 4.358 1.072 15.794 2.812 30.001.505 4.125 1.6 14.447 2.435 22.937.833 8.49 1.892 16.428 2.353 17.64.46 1.21.837 3.675.837 5.477 0 1.945.381 3.04.938 2.696.515-.318.937-1.384.937-2.367 0-8.625 8.41-11.667 11.292-4.085 3.712 9.763-4.268 18.178-10.341 10.905l-2.937-3.515.609 10.312c.334 5.672.98 11.764 1.435 13.537.454 1.773.587 4.176.295 5.34-.292 1.165-.09 3.51.45 5.214.538 1.703 1.188 5.628 1.444 8.722.255 3.093 1.15 11.53 1.987 18.747 1.437 12.39 2.152 18.795 2.275 20.393.117 1.533 1.542.548 3.057-2.115 3.02-5.307 11.997-3.067 11.997 2.994 0 7.36-5.043 12.413-10.379 10.399l-2.746-1.037.025 4.372c.014 2.404.88 12.598 1.926 22.653 1.045 10.055 2.262 22.5 2.705 27.656.443 5.156 1.46 13.594 2.261 18.75.801 5.156 2.76 22.031 4.351 37.5 1.592 15.469 3.305 30.024 3.807 32.344.502 2.32 1.558 10.758 2.346 18.75.789 7.992 1.85 18.539 2.357 23.437.508 4.899 1.318 13.336 1.8 18.75 1.882 21.17 3.738 37.497 5.595 49.22.49 3.093 1.53 12.585 2.31 21.093 2.68 29.24 3.305 34.882 4.712 42.51.776 4.205 1.653 9.334 1.95 11.396.298 2.063 1.009 5.438 1.58 7.5.573 2.063.938 4.32.813 5.019-.125.697.088 1.963.474 2.812.471 1.037.89.01 1.277-3.143.316-2.578 1.267-5.984 2.112-7.569zm-7.095-60.792c-1.465-.648-3.04-1.773-3.501-2.502-3.684-5.82 4.353-14.672 8.65-9.528 6.342 7.594 2.917 15.596-5.15 12.03zm-12.27-88.269c-2.96-2.96-.832-13.678 2.91-14.656 4.613-1.207 8.469 3.383 7.442 8.86-1.153 6.141-6.829 9.32-10.353 5.796zm-8.906-90.06c-4.638-5.896 1.22-17.728 7.196-14.53 2.682 1.435 5.411 10.081 3.838 12.162-3.991 5.28-8.057 6.154-11.034 2.369zM140.01 966.139c3.52-14.852 4.079-17.296 6.546-28.594 1.07-4.899 2.978-13.336 4.24-18.75a1021.11 1021.11 0 004.157-18.75c1.025-4.899 3.806-17.555 6.18-28.125 5.544-24.685 9.584-43.292 10.686-49.219.48-2.578 1.536-7.008 2.349-9.844 1.59-5.551 5.745-24.699 7.017-32.343.43-2.578 1.446-7.008 2.26-9.844.815-2.836 2.153-8.531 2.974-12.656.82-4.125 2.065-9.61 2.765-12.188.7-2.578 1.942-7.851 2.762-11.719.82-3.867 2.524-11.46 3.785-16.875 1.262-5.414 2.957-13.64 3.767-18.28 1.503-8.613 2.427-12.913 4.734-22.032.718-2.836 1.758-8.11 2.313-11.719.555-3.61 1.25-7.353 1.544-8.32.347-1.143.171-1.534-.503-1.117-.571.353-1.038 1.798-1.038 3.211 0 1.414-.415 2.984-.921 3.491-.507.507-2.158 5.759-3.67 11.672-1.51 5.913-3.838 14.074-5.172 18.136-1.333 4.062-2.425 9.307-2.425 11.655 0 2.348-.808 7.462-1.795 11.365-.987 3.902-2.48 10.892-3.318 15.532-.837 4.64-1.948 10.758-2.468 13.594-.52 2.836-1.95 8.531-3.178 12.656-2.805 9.425-4.93 19.199-5.54 25.483-.26 2.672-1.302 6.485-2.317 8.473-1.014 1.988-2.737 7.377-3.83 11.975-1.091 4.598-2.652 10.277-3.468 12.62-.815 2.344-1.613 5.738-1.772 7.543-.784 8.908-9.133 38.835-11.637 41.719-1.155 1.329-1.93 4.878-2.661 12.187-.568 5.672-1.741 12-2.607 14.063-.866 2.062-1.937 6.623-2.38 10.135-.442 3.512-1.656 8.312-2.698 10.666-1.083 2.449-1.9 6.336-1.91 9.083-.025 7.612-1.756 22.078-2.895 24.207-.572 1.07-1.186 5.156-1.364 9.082-.178 3.927-.77 8.616-1.313 10.42-.544 1.805-1.19 6.868-1.435 11.25-.523 9.343-.052 8.247 4.236-9.843zm442.473-22.963c1.573-3.798.127-12.522-2.149-12.96-4.62-.89-11.658 11.187-7.927 13.602 5.094 3.297 8.535 3.077 10.076-.642zm-357.76-363.053c.768-2.707 2.073-8.508 2.9-12.89.826-4.383 1.958-9.868 2.514-12.188 2.078-8.67 3.355-15 3.026-15-.827 0-3.244 7.25-4.59 13.766-.808 3.91-1.94 7.991-2.517 9.068-.577 1.078-1.408 4.924-1.847 8.547-.44 3.623-1.053 8.17-1.364 10.103-.821 5.113.258 4.304 1.878-1.406zm144.456-350.601c-.372-3.21-1.211-6.69-1.865-7.735-.653-1.044-1.463-3.854-1.8-6.243-.79-5.616-4.279-9.41-4.279-4.653 0 1.656.408 4.78.905 6.942.498 2.162 1.372 6.356 1.942 9.32 1.83 9.518 6.16 11.53 5.097 2.369zm9.29-6.118c-1.567-11.567-3.56-19.883-7.36-30.703-1.81-5.156-3.297-10.58-3.302-12.053-.006-1.473-.641-5.481-1.414-8.906-.773-3.426-2.695-12.32-4.272-19.764-1.577-7.444-3.097-13.906-3.377-14.36-.456-.737-1.44-7.568-4.08-28.354-1.273-10.012-4.543-30.669-5.24-33.096-.438-1.524-1.205-2.076-2.608-1.875-2.5.356-2.636 6.4-.205 9.087 1.3 1.436 1.406 2.425.632 5.837-.73 3.213-.553 5.846.814 12.078.96 4.383 2.239 13.242 2.84 19.687.6 6.446 1.665 13.829 2.366 16.407.7 2.578 1.577 6.797 1.948 9.375.372 2.578 1.457 6.515 2.412 8.75.956 2.233 1.737 5.482 1.737 7.22 0 4.804 2.471 13.26 4.852 16.605 1.769 2.483 2.14 4.258 2.194 10.519.065 7.314 3.018 19.565 6.563 27.218.716 1.547 1.787 4.711 2.38 7.031 2.64 10.326 4.555 9.894 3.12-.703zm-34.109-.483c0-8.4-4.1-15.638-6.394-11.292-4.136 7.83-4.072 15.694.134 16.513 6.176 1.202 6.26 1.133 6.26-5.221zm-25.744-5.82c.353-2.822.367-11.365.03-18.984-.335-7.62-.767-18.072-.959-23.228-.192-5.157-1.012-12.118-1.824-15.47-.811-3.35-1.513-8.624-1.558-11.718-.127-8.518-1.234-14.761-2.067-11.645-1.354 5.07-7.253 5.19-7.253.146 0-5.23 3.335-7.36 6.723-4.293 2.014 1.822 2.6-3.77.757-7.215-.527-.985-1.155-7.602-1.394-14.704-.48-14.22-1.46-19.849-3.668-21.085-2.73-1.528-3.626-4.402-2.097-6.734.898-1.37 1.093-2.595.55-3.453-.463-.731-.849-2.676-.856-4.32-.025-5.221-1.644-4.231-2.23 1.364-.311 2.957-.83 6.964-1.154 8.905-.555 3.328-.419 3.587 2.406 4.572 2.465.86 2.884 1.396 2.367 3.034-.346 1.095-.944 3.761-1.329 5.925-.385 2.164-1.136 4.484-1.669 5.156-3.157 3.982-2.27 17.275 1.243 18.61 2.873 1.093 2.828 3.444-.126 6.528-4.368 4.558-4.594 34.678-.261 34.678.564 0 .66-2.966.253-7.845-.618-7.418-.54-7.925 1.43-9.304 3.588-2.514 4.812-1.104 4.615 5.317-.096 3.156.425 8.48 1.159 11.832.956 4.368 1.13 8.217.612 13.594-.953 9.915-.988 12.508-.218 16.324.477 2.368.266 3.477-.811 4.265-1.31.957-1.314 1.626-.042 6.644.778 3.068 1.746 7.963 2.152 10.876 1.286 9.246 4.188 10.485 5.22 2.228zm11.562-16.914c3.554-8.208 3.769-13.166.606-13.96-3.97-.997-5.174.727-5.174 7.41 0 12.265 1.292 14.118 4.568 6.55zm3.401-34.478c2.287-5.715 2.136-15.96-.324-22.012-1.104-2.718-2.271-7.359-2.593-10.313-.322-2.953-1.59-9.23-2.818-13.949-1.229-4.718-2.238-9.991-2.244-11.719-.006-1.727-.657-5.25-1.448-7.827-2.276-7.424-3.716-36.947-1.89-38.773 2.873-2.873 4.145 3.083 4.23 19.802.053 10.473.198 11.282 2.868 16.014 2.126 3.766 2.813 6.174 2.813 9.86 0 2.681.629 6.381 1.398 8.222.769 1.84 1.37 4.675 1.334 6.298-.128 5.925 1.649 15.236 3.639 19.06 2.95 5.67 4.197 6.055 3.567 1.101-.286-2.246-.964-7.881-1.508-12.522-.543-4.64-1.382-11.601-1.864-15.469-.915-7.343-1.94-18.408-4.26-45.937-3.537-42.01-4.925-46.846-15.38-53.57-7.676-4.936-10.034-3.638-8.163 4.494 1.351 5.875 1.215 5.797 7.761 4.485 7.667-1.537 13.112 18.774 6.827 25.464-3.452 3.675-8.425 2.892-10.799-1.699-.792-1.532-1.596-2.63-1.785-2.441-.432.432 1.987 31.48 3.238 41.548.513 4.125 1.377 14.04 1.921 22.031 3.548 52.098 9.252 73.417 15.48 57.852z"/></svg>