<svg xmlns="http://www.w3.org/2000/svg" viewBox="0 0 900 950.88"><path d="M420.69 949.29c-74.47-7.69-127.36-24.17-189.9-59.16C141.3 840.07 67.51 752.32 29.75 651.05c-6.538-17.53-15.22-49.71-22.192-82.25-31.296-146.06 37.019-328.99 160.2-428.98 38.698-31.412 68.954-49.793 116.49-70.77 14.371-6.342 56.711-18.926 71.412-21.224 10.979-1.717 9.148 3.253-2.394 6.499-48.894 13.75-85.647 27.248-89.008 32.686-1.953 3.16-22.622 13.89-28.506 14.8-9.81 1.517-18.087 7.89-20.138 15.507-3.155 11.716-.133 14.815 10.225 10.487 7.342-3.068 41.923-11.577 58.734-14.452 11.24-1.923 17.81-4.364 34.448-12.798 11.308-5.732 21.086-10.422 21.73-10.422 5.398 0 15.825-10.85 22.652-23.57 10.805-20.13 19.811-32.976 25.943-37.001 24.36-15.99 64.94-27.75 101.55-29.422 48.23-2.205 134.85 22.529 134.85 38.504 0 2.701-4.715 2.57-7.853-.22C614.04 35 584.378 20.728 576.277 18.4a1475.264 1475.264 0 01-14.362-4.222c-21.5-6.463-74.27-9.415-94.43-5.283-60.59 12.417-94.63 29.964-85.74 44.199 1.497 2.397-5.3 17.632-10.772 24.14-2.234 2.659-2.222-2.512.014-6.298 1.54-2.606 2.053-4.739 1.14-4.739-.912 0-3.566 3.764-5.898 8.365-4.533 8.945-6.245 10.683-14.965 15.18-3.071 1.584-8.816 4.726-12.766 6.982-3.95 2.256-18.312 10.093-31.916 17.415-30.035 16.167-39.955 22.387-48.995 30.72-7.029 6.479-10.066 7.12-7.052 1.49 1.463-2.733 21.74-18.817 29.897-23.714 11.434-6.865-9.68-2.985-49.964 9.18-35.704 10.784-55.237 35.426-39.58 49.936 2.193 2.033 3.989 4.512 3.989 5.509 0 7.022 8.922-1.865 10.542-10.501.777-4.144 1.762-5.242 4.7-5.242 2.045 0 4.207-.79 4.805-1.758 1.181-1.91 7.2-4.645 22.551-10.245l9.885-3.606.933 4.244c1.515 6.898-1.857 25.871-5.465 30.751-1.798 2.432-3.27 5.451-3.27 6.71 0 4.577-5.314 4.374-13.158-.503-7.63-4.743-13.167-6.293-12.107-3.39 1.3 3.56 19.177 15.721 22.019 14.978 2.148-.562 3.707.57 5.464 3.969 1.464 2.83 4.258 5.204 6.903 5.864 2.445.61 5.522 2.01 6.838 3.11s6.343 3.598 11.171 5.547c4.827 1.95 10.213 4.15 11.968 4.89 21.193 8.936 21.543 9.02 21.543 5.143 0-2.211-4.147-4.602-17.155-9.888-9.435-3.834-18.974-8.087-21.198-9.451-12.413-7.614-14.289-9.039-14.299-10.858-.005-1.097.651-1.995 1.46-1.995 2.035 0 3.902-9.068 3.471-16.866-.808-14.619 11.842-32.604 22.934-32.604 2.656 0 .157 5.063-3.938 7.98-5.836 4.155-5.444 12.574.956 20.524.256.318 3.618-2.007 7.473-5.165 10.526-8.626 26.39-13.282 57.796-16.964 7.9-.926 19.03-2.35 24.735-3.163 5.705-.814 15.04-1.886 20.745-2.383 9.983-.87 55.986-7.25 75.8-10.511 13.201-2.174 21.958-5.613 24.449-9.603 2.622-4.199 1.554-5.47-2.48-2.951-2.5 1.56-3.874 1.398-7.336-.871-4.897-3.209-5.514-5.593-1.468-5.67 3.192-.06 9.974-5.252 9.974-7.634 0-1.896-14.91-15.594-21.138-19.42-5.156-3.166-4.472-4.685 1.587-3.527 2.37.453 8.116 4.63 12.768 9.281 9.73 9.731 11.376 9.65 16.269-.798 6.521-13.923.59-19.783-31.827-31.442-13.434-4.831-18.396-8.055-9.575-6.22 7.07 1.47 39.768 16.12 43.485 19.484 2.485 2.248 2.793 2.255 2.793.069 0-4.13-33.424-20.463-46.804-22.872-6.917-1.246-9.08-4.542-5.398-8.224 4.51-4.51 42.26 10.688 54.443 21.918l6.712 6.186 4.699-3.086c28.625-18.801 98.424-28.516 122.53-17.052 18.131 8.623 27.686 20.257 14.625 17.807-4.862-.913-5.585-.637-5.585 2.126 0 7.052-4.507 7.677-10.843 1.502-9.497-9.254-38.856-14.575-48.205-8.736-3.768 2.353-4.197 34.011-.49 36.086 1.1.616 2.199 2.752 2.443 4.749.633 5.174-10.442 8.978-77.529 26.624-20.605 5.42-25.217 7.17-18.89 7.17 4.334 0 53.191-11.853 62.623-15.193 18.408-6.519 35.535-10.52 36.732-8.583 2.228 3.605 23.124-2.006 22.691-6.093-.403-3.8.464-4.212 26.034-12.361 21.082-6.72 19.512-6.598 21.391-1.654.905 2.38 2.777 3.99 4.64 3.99 8.786 0 5.79 7.933-3.662 9.699-23.055 4.307-53.271 32.27-46.992 43.488 1.527 2.729.46 10.319-3.574 25.405-1.542 5.768-4.668 8.303-4.668 3.786 0-6.176-4.897-6.376-9.822-.4-5.333 6.469-16.597 12.191-41.244 20.95a2900.671 2900.671 0 00-28.724 10.403c-34.21 12.652-39.812 12.383-39.943-1.921-.075-8.198-2.56-2.13-3.634 8.875-.646 6.613-.18 11.22 1.58 15.616 2.198 5.496 2.216 6.562.148 8.973-6.621 7.718-3.69 9.582 3.241 2.06 2.365-2.564 7.89-6.062 12.277-7.772 10.465-4.076 88.224-35.71 100.53-40.9 12.595-5.308 13.711-5.242 12.513.745-.743 3.72-.127 5.755 2.636 8.696 4.003 4.26 3.377 8.789-1.215 8.789-1.608 0-3.654.731-4.548 1.625-2.235 2.236-24.646 14.171-47.881 25.5-18.42 8.981-19.476 9.761-22.06 16.288-1.492 3.77-5.328 10.675-8.523 15.344-5.016 7.33-5.762 9.592-5.46 16.553.496 11.394-1.99 19.044-8.02 24.671-13.232 12.348-20.002 24.002-17.097 29.43.923 1.724 1.462 6.884 1.197 11.465-.987 17.117-14.045 9.561-14.045-8.127 0-11.481-25.103-18.129-34.917-9.248-1.559 1.412-4.347 2.566-6.196 2.566-6.197 0-12.3 3.275-18.199 9.766l-5.853 6.441 3.843 8.253c2.474 5.315 3.848 11.167 3.858 16.436.018 9.019 1.373 10.817 9.285 12.317 6.024 1.143 13.072-4.23 13.072-9.963 0-6.69 12.005-10.587 18.341-5.954 2.808 2.053 2.86 2.897.844 13.584-2.074 10.991-2.028 11.525 1.3 15.07 1.899 2.02 3.452 4.436 3.452 5.37 0 .933 1.077 2.59 2.394 3.683 1.434 1.19 2.394 4.68 2.394 8.702 0 7.444 1.234 8.48 14.362 12.047 8.933 2.428 15.298 6.857 18.358 12.775 3.222 6.231 5.995 6.762 25.155 4.813 25.744-2.619 41.735 1.377 59.635 14.903 5.386 4.07 10.568 7.4 11.514 7.4.946 0 4.173 2.154 7.172 4.787 3 2.633 6.507 4.788 7.797 4.788 6.957 0 11.934 3.797 18.778 14.33 7.322 11.27 9.97 12.887 10.888 6.65.93-6.325 6.917-8.818 14.036-5.844 11.062 4.623 21.998 17.648 20.345 24.234-.639 2.545.014 4.927 1.928 7.043 2.623 2.898 2.689 3.825.7 9.91-1.208 3.69-2.412 13.892-2.676 22.67-.265 8.776-.6 18.83-.744 22.34-.144 3.51-.032 10.467.25 15.46.864 15.27-16.572 40.367-37.06 53.343-3.243 2.054-10.113 9.342-15.267 16.196-9.421 12.528-11.461 15.882-17.7 29.1-9.273 19.645-28.921 47.855-33.342 47.868-3.563.011-12.752 10.117-20.158 22.17-7.77 12.643-15.891 19.19-23.918 19.276-10.183.11-22.983 21.676-15.581 26.251.762.471 1.84 3.704 2.397 7.184 1.227 7.67-.062 6.852 21.448 13.597 22.033 6.908 37.587 5.936 24.636-1.54l-4.388-2.532 5.585 1.01c14.311 2.587 17.231 2.63 21.655.311l4.585-2.402-6.184-2.584c-8.546-3.57-6.243-4.727 4.922-2.471 13.579 2.743 21.668 4.16 40.45 7.083 30.39 4.73 28.488 4.286 23.937 5.582-2.194.625-8.657.535-14.362-.2-30.803-3.967-33.02-3.8-28.325 2.149 1.273 1.613 6.902 3.206 15.559 4.403 16.952 2.343 20.745 3.248 20.745 4.947 0 1.58-11.652.532-29.3-2.634-15.465-2.775-15.382-2.776-15.382.102 0 3.277 6.945 6.421 19.149 8.67 5.705 1.05 13.414 3.481 17.13 5.401 6.542 3.38 7 3.408 14.362.86 4.182-1.448 10.68-3.124 14.442-3.724 3.76-.601 8.787-2.72 11.17-4.708 2.384-1.989 6.847-4.878 9.92-6.42s7.519-4.875 9.883-7.406c2.364-2.53 5.64-4.6 7.281-4.6s5.047-2.155 7.57-4.788c2.523-2.633 5.322-4.787 6.22-4.787.9 0 6.485-5.007 12.414-11.126 5.928-6.12 13.4-12.222 16.606-13.561 4.646-1.942 5.653-3.1 4.969-5.716-.67-2.558.345-3.855 4.6-5.884 3.213-1.532 5.458-3.779 5.458-5.46 0-1.572 2.514-5.145 5.586-7.94s5.585-5.85 5.585-6.786c0-.937 2.693-4.274 5.984-7.416 8.972-8.564 18.714-20.775 22.51-28.214 1.857-3.64 4.134-7.087 5.06-7.66 2.826-1.747 9.704-13.565 8.772-15.073-.481-.779 1.288-3.784 3.932-6.679 2.644-2.895 4.807-6.414 4.807-7.821s1.833-4.28 4.073-6.384c2.777-2.609 3.803-4.904 3.224-7.211-.575-2.292.428-4.585 3.108-7.103 2.177-2.045 3.957-4.94 3.957-6.436s1.078-3.612 2.394-4.704 2.394-3.468 2.394-5.28 1.397-4.78 3.106-6.598c8.251-8.783 8.11-17.256-.614-36.794-3.76-8.42-4.407-12.055-2.546-14.297 3.562-4.292-1.545-4.272-12.328.048-15.045 6.028-53.248 15.482-55.096 13.634-1.936-1.935 2.673-4.379 10.858-5.756 14.945-2.515 56.62-16.175 56.62-18.558 0-2.578-7.094-1.441-20.427 3.274-12.009 4.246-32.754 9.687-36.937 9.687-5.444 0 .038-3.22 10.688-6.276 23.652-6.789 41.89-13.145 41.89-14.601 0-1.865-4.269-1.87-10.383-.013-35.808 10.876-52.12 14.879-53.797 13.202-2.88-2.881 7.503-6.935 23.487-9.168 8.462-1.182 37.24-10.968 39.808-13.537 2.668-2.668-2.887-1.714-19.116 3.281-22.816 7.023-24.104 3.617-1.542-4.08 16.949-5.782 27.199-10.733 26.281-12.692-.966-2.062-.118-2.284-27.014 7.088-13.734 4.786-23.658 7.458-24.516 6.6-2.459-2.46.245-4.586 7.305-5.747 11.256-1.85 45.871-15.189 45.871-17.677 0-3.143-.76-2.984-19.753 4.15-9.346 3.51-18.42 6.383-20.164 6.383-5.628 0-3.367-3.017 3.612-4.82 11.417-2.95 12.784-3.442 24.876-8.946 21.657-9.858 13.061-12.273-10.724-3.013-8.505 3.312-15.57 5.228-16.36 4.438-.79-.79 4.296-3.634 11.778-6.586 19.987-7.885 23.542-9.602 23.542-11.367 0-2.524-2.983-1.986-17.554 3.166-22.85 8.081-24.174 5.986-1.963-3.108 21.962-8.993 17.051-11.9-5.799-3.433-14.348 5.316-18.398 6.03-17.41 3.067.344-1.034 5.61-3.54 11.702-5.569 18.571-6.187 24.64-8.708 24.64-10.238 0-2.617-5.936-1.557-18.612 3.324-13.576 5.227-17.103 5.839-16.112 2.792.357-1.097 7.725-4.508 16.373-7.58 8.648-3.072 16.016-6.483 16.373-7.58.875-2.69-2.779-2.51-9.96.49-3.269 1.366-7.844 2.236-10.168 1.933-4.742-.618-3.046-1.671 14.644-9.092 4.234-1.776 7.27-3.92 6.747-4.766-.587-.95-2.917-.733-6.102.569-16.693 6.826-17.067 2.872-.454-4.803 6.533-3.019 12.35-6.251 12.926-7.184 2.108-3.41-.92-3.405-8.186.01-14.477 6.805-22.852 9.615-23.85 8-.537-.87 1.768-2.71 5.122-4.09 11.472-4.722 31.628-14.59 34.821-17.049 7.184-5.531-.197-4.529-12.847 1.745-18.048 8.951-24.927 8.858-7.636-.104 24.42-12.656 28.436-19.774 4.444-7.875-7.44 3.69-14.594 6.71-15.898 6.71-5.358 0-1.68-3.062 9.573-7.968 20.467-8.924 20.5-12.895.039-4.702-16.076 6.437-21.124 5.24-6.587-1.563 13.256-6.203 13.072-10.93-.24-6.144-4.13 1.486-8.112 2.1-8.847 1.365-.736-.735.872-2.107 3.571-3.048 6.156-2.146 6.168-2.06-1.311-9.689-3.42-3.49-5.832-6.733-5.358-7.207 4.091-4.091-9.234-9.394-16.245-6.465-13.013 5.438-40.57-4.354-51.967-18.466-3.072-3.803-7.919-9.563-10.772-12.8-2.852-3.236-5.186-6.624-5.186-7.53 0-.904-2.108-2.38-4.685-3.277-5.914-2.062-9.677-9.227-9.677-18.425 0-5.7-1.125-8.612-5.586-14.455-6.319-8.279-7.056-14.3-3.348-27.346 1.23-4.329 2.685-10.49 3.234-13.694.548-3.204 2.11-6.749 3.473-7.88s4.137-5.33 6.168-9.335c2.031-4.005 5.207-8.65 7.057-10.321 4.006-3.62 4.427-11.313.98-17.922-6.442-12.352-.708-15.48 19.14-10.44 20.168 5.12 24.211 5.552 28.925 3.088 9.382-4.906 16.555-7.493 16.555-5.97 0 .864-.838 1.57-1.862 1.57s-1.422.44-.884.977c.537.538 4.383-.183 8.546-1.601 4.163-1.419 7.972-2.021 8.464-1.34 4.503 6.231 12.872 7.959 16.916 3.491 2.88-3.181 2.87-3.28-.368-4.128-2.44-.638-3.6-2.63-4.379-7.511-1.135-7.12-9.068-17.016-13.642-17.016-3.661 0-18.459-5.4-21.332-7.783-1.342-1.114-3.739-1.89-5.327-1.725-5.446.566-6.568-.077-9.857-5.652-4.182-7.088-11.413-7.896-14.283-1.596-1.33 2.92-3.058 3.99-6.444 3.99-5.986 0-8.42 3.108-9.934 12.683-1.805 11.42-8.822 21.387-14.132 20.072-2.25-.557-6.604-1.525-9.676-2.151l-5.585-1.138.545-15.214c.626-17.473-.526-19.561-10.456-18.96-9.405.57-9.616.427-12.498-8.458-3.636-11.207-4.226-11.635-11.83-8.593-3.585 1.435-7.98 2.609-9.766 2.609s-6.439 1.454-10.34 3.231c-9.773 4.453-16.668 5.717-16.668 3.057 0-6.61 7.068-16.273 14.177-19.382 11.75-5.139 33.798-12.519 42.473-14.215 4.389-.858 12.288-2.616 17.554-3.908 47.371-11.618 45.318-11.955 65.537 10.755 114.07 128.13 148.81 306.16 91.17 467.28-33.064 92.423-109.46 185.01-191.81 232.46-82.834 47.731-180.71 71.58-260.11 63.38zm14.835-23.199c5.554-10.262 11.251-15.345 19.386-17.297 4.304-1.033 8.2-2.853 8.658-4.045.475-1.24 3.773-2.38 7.7-2.662 8.18-.59 8.188-2.91.022-5.734-10.163-3.516-19.53-8.554-18.626-10.017.477-.772 4.608.317 9.18 2.418 14.246 6.547 29.964 10.976 31.939 9.001 2.324-2.324.493-3.769-9.262-7.305-10.694-3.878-30.92-13.577-32.02-15.357-1.425-2.306 2.004-1.647 7.635 1.467 21.388 11.83 65.077 25.015 65.077 19.64 0-1.449-2.584-2.536-17.554-7.386-11.634-3.77-32.588-14.545-30.633-15.754.85-.526 6.116 1.105 11.701 3.623 29.312 13.215 46.974 18.102 52.443 14.51 2.738-1.797-.173-4.684-4.787-4.746-2.626-.035-29.61-9.84-34.957-12.702-8.072-4.32-2.215-4.182 9.823.232 7.24 2.654 16.397 5.755 20.346 6.89 3.95 1.135 9.203 2.851 11.673 3.814 6.758 2.633 12.602 2.26 11.982-.764-.308-1.501-5.978-4.59-14.08-7.67-25.557-9.714-33.827-15.738-10.118-7.37 13.842 4.886 20.416 5.895 21.974 3.373 1.207-1.953-2.174-4.483-7.876-5.894-17.292-4.28-39.088-17.514-39.088-23.733 0-2.3-1.993-5.207-5.297-7.727-4.262-3.25-5.68-5.861-7.25-13.355-1.074-5.123-2.93-13.982-4.123-19.687-2.88-13.775-1.49-20.88 8.273-42.288 9.904-21.717 10.802-25.6 7.654-33.134-4.825-11.548-2.842-20.125 10.366-44.846 9.13-17.088 12.009-30.589 7.621-35.745-1.296-1.523-3.884-6.115-5.752-10.205-3.67-8.039-6.766-9.743-21.44-11.804-14.268-2.004-26.63-21.097-26.669-41.186-.01-6.26-.17-16.41-.35-22.554-.68-23.022 4.248-35.436 21.973-55.358 14.802-16.638 14.225-45.32-.846-42.01-2.781.61-7.698-.251-13.06-2.29-4.73-1.798-10.844-3.269-13.585-3.27-10.81-.001-32.35-14.132-37.31-24.477-3.08-6.426-7.246-7.361-8.609-1.933-2.622 10.447-37.42-4.933-41.704-18.433-.529-1.667-1.594-3.03-2.368-3.03-1.75 0-17.528-25.437-17.528-28.26 0-1.133-1.077-2.061-2.393-2.061-3.007 0-3.018-.125.747 8.659 1.727 4.03 6.251 10.732 10.053 14.893 12.595 13.786 15.239 21.13 7.606 21.13-3.8 0-22.483-17.743-26.044-24.735-1.34-2.633-5.228-7.797-8.637-11.474-9.755-10.524-14.296-22.99-10.945-30.05 3.267-6.883 3.819-6.88 9.336.034 4.474 5.607 8.321 7.146 9.444 3.777 1.068-3.203 7.348.158 10.834 5.797 1.842 2.982 4.776 5.874 6.52 6.427 1.743.553 5.402 4.961 8.13 9.796s6.113 9.138 7.523 9.564c5.47 1.654 7.35 3.462 7.4 7.117.076 5.75 2.303 10.98 4.673 10.98 4.44 0 5.559-11.502 1.66-17.069-1.317-1.879-1.943-4.591-1.392-6.027 1.216-3.17-4.116-13.607-6.95-13.607-2.808 0-2.555 5.558.362 7.979 3.08 2.555 3.07 6.224-.02 7.41-3.472 1.332-6.37-1.67-8.511-8.816-1.98-6.611-13.66-19.326-17.783-19.359-1.326-.01-3.978-2.441-5.895-5.402-2.46-3.799-5.276-5.803-9.575-6.813-4.953-1.164-6.182-2.221-6.584-5.663-.522-4.458-1.186-4.74-16.261-6.894-20.793-2.972-58.605-15.323-78.992-25.802-32.681-16.8-40.922-21.953-51.473-32.193-9.226-8.954-8.866-17.747.727-17.747 5.187 0 4.554-2.355-1.61-5.992-10.319-6.088-20.565-27.68-17.995-37.92 1.641-6.538 5.721-4.95 5.721 2.226 0 12.27 14.458 36.261 18.582 30.834 1.752-2.305 2.07-1.111 2.113 7.928.028 5.853.485 11.773 1.015 13.156 1.247 3.248 3.823 1.666 3.823-2.348 0-1.704.718-3.097 1.596-3.097h2.792c.658 0 1.287.718 1.396 1.595l.4 3.176c.205 1.629 27.584 15.974 30.487 15.974 4.79 0-.041-3.981-13.93-11.481-17.454-9.424-16.773-12.923.785-4.035 5.931 3.002 12.758 5.94 15.172 6.528 3.933.959 4.41 1.812 4.588 8.22.11 3.933.38 7.87.599 8.747.219.877.488 2.673.598 3.99.27 3.246 2.833 3.007 8.117-.755l4.421-3.148 13.38 4.647c33.455 11.62 52.897 14.669 53.782 8.434 1.06-7.465-5.031-12.612-18.456-15.592-13.426-2.981-38.59-11.363-40.992-13.655-3.751-3.58 1.609-2.797 16.624 2.429 17.475 6.082 21.413 6.799 20.382 3.707-.36-1.08-5.626-3.504-11.702-5.386-6.076-1.882-14.928-4.98-19.67-6.886-5.605-2.252-10.212-3.115-13.165-2.466-4.226.928-4.543.655-4.543-3.917 0-6.041 1.547-6.152 14.744-1.056 35.196 13.591 43.634 15.583 36.721 8.67-2.449-2.45-47.805-18.911-52.104-18.911-1.859 0-4.27-1.427-5.36-3.17s-4.365-4.167-7.282-5.386c-2.916-1.218-7.763-4.326-10.77-6.905-6.411-5.497-15.13-11.667-16.488-11.667-4.766 0 6.476 11.32 21.146 21.293 10.983 7.466 10.363 6.858 9.091 8.915-1.446 2.34-7.84-1.161-20.125-11.02-14.319-11.49-19.01-8.904-5.947 3.278 8.44 7.869 5.834 8.164-4.055.46-4.926-3.838-7.443-7.01-7.443-9.38 0-1.969-1.078-4.474-2.394-5.567s-2.394-2.976-2.394-4.185-.641-2.198-1.425-2.198c-1.954 0-3.362 4.105-3.362 9.8 0 2.76-.669 4.337-1.596 3.764-.878-.542-1.596-2.628-1.596-4.634s-1.492-4.998-3.315-6.648c-5.635-5.1-10.036-16.41-7.551-19.405 5.574-6.72.808-36.888-4.998-31.633-2.056 1.86-4.66 2.587-7.394 2.065-3.517-.673-6.251 1.054-16.413 10.364-13.952 12.783-22.253 18.47-28.893 19.799-6.54 1.308-12.888 17.518-8.034 20.517 6.793 4.198-10.759 27.834-22.949 30.904-8.22 2.07-11.445 5.85-18.77 22.007-2.665 5.878-6.577 12.05-8.692 13.713-2.147 1.689-3.845 4.71-3.845 6.838 0 8.795-8.21 25.318-19.71 39.672-2.503 3.124-5.226 8.69-6.053 12.368-.827 3.68-4.15 10.976-7.383 16.216-5.899 9.557-6.523 12.917-5.146 27.697.288 3.096-1.119 8.09-3.638 12.907-7.611 14.556-9.165 23.246-9.505 53.157-.502 44.164.26 55.041 4.79 68.355 3.686 10.831 3.934 13.27 3.003 29.57-.962 16.844-.821 18.052 2.714 23.302 2.05 3.046 4.248 7.692 4.882 10.325 1.978 8.206 5.329 11.968 10.657 11.968 5.61 0 20.68 11.387 26.6 20.1 9.279 13.656 20.962 11.997 18.236-2.59-2.25-12.048 4.081-18.074 14.395-13.697 2.89 1.226 9.506 3.563 14.703 5.192 12.403 3.89 18.041 12.223 19.874 29.38 1.215 11.367 1.248 11.43 10.283 19.355 4.986 4.374 9.065 8.832 9.065 9.908 0 1.076 2.484 6.081 5.52 11.123l5.52 9.167-2.5 16.945c-1.927 13.078-2.095 18.29-.731 22.84 2.406 8.031 2.22 13.103-.752 20.53-2.663 6.655-4.071 7.687-14.212 10.414-6.032 1.622-6.44 2.13-7.979 9.947-.892 4.53-2.878 9.614-4.414 11.296-3.882 4.25-3.548 5.47 2.661 9.698 2.988 2.034 7.39 6.522 9.781 9.973 2.392 3.451 5.216 6.275 6.277 6.275s5.97 3.41 10.91 7.58c8.994 7.589 25.504 20.655 38.208 30.237 3.721 2.807 9.02 6.936 11.773 9.176s5.698 4.072 6.543 4.072c.845 0 4.51 2.154 8.145 4.787s8.066 4.788 9.848 4.788c3.83 0 14.48 6.525 22.321 13.678 3.65 3.33 8.626 5.785 14.362 7.09 4.827 1.097 12.726 4.052 17.554 6.568 4.827 2.515 10.102 4.574 11.722 4.576 1.62.002 4.851.99 7.181 2.195 8.815 4.56 16.437 7.383 19.93 7.383 1.988 0 4.42.804 5.402 1.787 1.97 1.97 12.505 4.584 21.193 5.26 3.072.238 7.56.982 9.974 1.654 2.422.673 8.86.375 14.362-.667 8.075-1.527 12.706-1.443 24.335.444 24.325 3.947 29.181 3.598 32.389-2.33zm-19.11-28.77c-7.576-3.262-11.401-7.696-6.64-7.696 2.504 0 19.694 9.156 19.694 10.49 0 1.523-6.021.234-13.053-2.794zm35.394 2.395c-15.003-5.183-33.058-16.475-26.343-16.475.983 0 33.194 15.894 34.152 16.851.94.94-4.799.663-7.809-.376zm-110.1-20.56c-5.705-3.813-11.136-6.967-12.069-7.01-2.227-.103-10.272-8.534-10.272-10.766 0-5.437 7.739-3.75 12.531 2.732 1.893 2.56 7.747 7.58 13.009 11.152 5.262 3.574 9.567 7.146 9.567 7.94 0 3.422-3.023 2.464-12.766-4.048zm108.91-16.83c-5.557-2.75-9.38-7.81-5.901-7.81 2.508 0 13.459 7.459 13.469 9.175.016 2.519.428 2.593-7.568-1.365zm-159.18-6.433c-9.434-5.846-18.805-15.177-17.918-17.841 1.792-5.383 15.097.382 18.594 8.057.907 1.99 2.63 3.62 3.83 3.62 2.916 0 7.462 5.18 7.462 8.503 0 3.84-2.919 3.27-11.968-2.338zm-91.802-61.465c-8.145-5.447-12.722-10.776-12.725-14.815-.002-2.698-2.154-6.114-6.32-10.034-14.647-13.781-14.143-17.412 2.521-18.17 6.49-.295 11.207-1.29 11.97-2.522.858-1.39 2.067-.099 3.805 4.062 1.678 4.014 3.311 5.806 4.78 5.242 2.71-1.04 4.641 4.155 3.393 9.128-.488 1.945.157 7.458 1.433 12.252 4.514 16.965 1.602 21.85-8.857 14.856zm-15.48-161.19c-1.079-.437-3.527-3.58-5.44-6.984-2.297-4.087-4.964-6.516-7.847-7.15-11.687-2.567-10.771-18.688 1.324-23.286 9.73-3.699 14.214 9.319 5.546 16.1l-4.388 3.434 4.524-.972c6.638-1.424 10.015.212 12.876 6.24 5.105 10.76 2.26 16.201-6.595 12.618zm-47.843-31.269c-.838-1.097-2.48-4.508-3.65-7.58-4.083-10.727-8.792-13.757-12.4-7.979-4.136 6.622-15.042 2.334-13.575-5.338.553-2.894-.072-4.184-2.387-4.918-6.372-2.022-8.67-6.44-7.479-14.381 1.843-12.288 9.286-13.038 20.095-2.026 2.953 3.008 8.015 6.329 11.248 7.379 3.977 1.291 6.985 3.783 9.297 7.702 2.324 3.939 3.808 5.163 4.635 3.825 2.173-3.516 5.426 2.576 6.171 11.556.927 11.178-6.682 18.663-11.955 11.76zm-52.842-19.87c.597-3.101 4.806-4.508 8.849-2.956 3.234 1.24 1.092 3.317-4.878 4.726-3.768.89-4.427.596-3.971-1.77zm-42.244-10.62c-2.948-2.948-6.383-5.728-7.633-6.178-1.832-.66-1.9-1.402-.348-3.817 8.801-13.697 10.701-18.055 11.366-26.077.7-8.447 1.321-9.716 6.881-14.07 8.726-6.832 22.527 17.451 15.008 26.407-2.012 2.398-4.154 7.302-4.759 10.898-2.535 15.081-12.216 21.137-20.516 12.837zm32.496-5.073c-5.115-13.67-4.05-15.836 10.121-20.59 11.484-3.85 14.788-.902 7.965 7.109-1.132 1.33-2.753 5.51-3.602 9.29-3.319 14.768-9.823 16.65-14.484 4.19zm-18.728-52.71c-1.33-3.466 2.046-6.726 4.463-4.309 2.043 2.043.778 6.81-1.807 6.81-.933 0-2.128-1.126-2.656-2.501zm20.782-2.216c-.84-4.204-1.205-4.454-3.35-2.308-3.586 3.585-9.084 2.196-9.742-2.46-1.066-7.557 11.286-11.602 13.12-4.296.757 3.015 1.753 3.619 4.96 3.005 4.443-.849 5.35 2.105 2.362 7.689-2.468 4.612-6.27 3.77-7.35-1.63zm7.406-10.108c-5.1-2.57-6.069-8.314-1.79-10.604 3.994-2.137 5.78.173 5.78 7.476v5.163c0-.013-1.796-.928-3.99-2.034zm-15.443-7.128c-8.278-1.38-9.106-26.065-.914-27.228 2.632-.374 3.59.291 3.59 2.491 0 1.651 1.437 4.544 3.193 6.428 7.086 7.606 3.173 19.817-5.869 18.309zm-39.393-55.75c-3.94-3.94 1.865-14.847 7.9-14.847 4.665 0 6.642 3.816 3.771 7.276-3.273 3.943-10.567 8.675-11.67 7.57zm4.126-22.118c-5.709-3.999-4.344-7.997 5.114-14.984 4.763-3.52 9.12-7.143 9.683-8.052.562-.91 3.743-3.042 7.069-4.739 6.746-3.442 9.666-8.847 9.955-18.427.237-7.887 5.47-22.533 8.459-23.68 4.702-1.804 6.05 3.123 3.373 12.332-2.011 6.92-2.226 10.937-1.034 19.357 1.842 13.003 1.77 13.203-9.849 27.513-8.237 10.144-9.783 11.363-12.544 9.885-3.377-1.807-9.411-.66-9.411 1.791 0 2.365-6.928 1.727-10.815-.996zm35.07-80.82c-5.168-5.17 1.555-17.794 9.013-16.924 7.382.861 8.555 8.515 2.179 14.213-5.632 5.032-8.239 5.663-11.191 2.71zm18.02-22.041c-2.41-3.9 1.054-12.86 7.246-18.742l11.495-10.927c8.745-8.319 11.735-12.21 17.033-22.174 5.74-10.797 13.675-18.226 16.475-15.425 1.257 1.257.56 3.444-2.508 7.87-2.336 3.372-4.248 8.309-4.248 10.97 0 7.091-24.045 35.682-30.01 35.682-.932 0-3.717 2.997-6.189 6.66-4.826 7.152-7.537 8.928-9.293 6.087zm147.52-51.12c-3.89-2.582-6.627-4.697-6.08-4.7 1.54-.012 15.762 6.445 15.762 7.154 0 2.476-3.642 1.552-9.68-2.454zm396.53 615.09c4.648-1.783 2.59-3.819-3.858-3.819-5.99 0-7.786 1.257-5.32 3.724 1.328 1.327 5.846 1.374 9.179.095zm-70.881-16.458c0-3.204-7.895-6.141-11.132-4.14-2.6 1.606-1.897 5.306 1.158 6.105 6.693 1.749 9.973 1.103 9.973-1.965zm-53.3-60.392c5.077-3.39 7.17-13.573 2.633-12.812-2.42.406-2.734-.701-2.352-8.308.401-8.01.233-8.514-1.928-5.77-7.637 9.696-6.26 32.17 1.648 26.89zm18.193-71.317c0-4.619-1.584-6.057-4.242-3.851-2.229 1.85-2.915 8.06-1.091 9.884 1.76 1.76 5.333-2.283 5.333-6.033zm16.773-42.394c4.437-8.81 5.294-11.858 4.01-14.257-.899-1.679-1.634-4.623-1.634-6.544 0-6.017-3.96-.892-7.137 9.239-1.588 5.062-3.586 11.165-4.44 13.563-1.666 4.677-.715 9.204 1.932 9.204.894 0 4.165-5.042 7.269-11.205zm4.6-29.618c2.719-7.088.015-15.03-5.118-15.03-1.786 0-2.02 1.578-1.121 7.58 1.55 10.358 4 13.284 6.238 7.45zm107.24-17.7c3.953-4.316 4.927-6.391 3.694-7.876-1.174-1.415-1.12-3.05.181-5.481 1.383-2.584 1.394-3.926.044-5.275-2.306-2.307-5.06 1.488-4.513 6.222.208 1.8-1.223 5.307-3.18 7.795-7.394 9.4-4.195 13.314 3.773 4.616zm-101.48-9.298c0-3.192-.799-3.99-3.99-3.99-4.558 0-4.74.437-2.01 4.81 2.751 4.405 6 3.961 6-.82zM565.566 623c.796-4.35.585-10.422-.55-15.832-2.66-12.687-2.698-12.766-6.035-12.766-1.675 0-4.031-1.193-5.236-2.652-5.555-6.726-25.33-17.737-25.33-14.104 0 3.718 5.956 8.777 10.333 8.777 2.768 0 4.684 1.423 6.41 4.759 1.353 2.617 4.558 6.31 7.122 8.205 6.465 4.78 8.678 10.951 7.395 20.621-1.738 13.1 3.552 15.785 5.892 2.992zm104.56 6.19c2.272-2.272 2.56-7.66.41-7.66-.828 0-2.593 1.553-3.923 3.451-3.529 5.038-.702 8.424 3.513 4.209zm-152.97-24.14c-11.542-9.831-11.77-21.012-.266-12.954 5.533 3.875 6.98 1.207 2.736-5.046-5.7-8.4-6.467-11.991-3.088-14.462 2.755-2.015 2.738-2.26-.398-5.707-3.61-3.97-5.938-16.572-3.357-18.167.892-.551 3.157.817 5.035 3.04 3.381 4.005 8.964 7.536 11.915 7.536 3.742 0 2.851-5.018-1.816-10.227-10.637-11.874-12.418-14.932-11.419-19.61l.956-4.472-4.13 4.787c-2.271 2.633-4.485 6.583-4.92 8.777-.433 2.194-1.316 6.503-1.96 9.575-1.256 5.994-1.46 29.72-.286 33.26 1.201 3.622-4.38 6.217-7.233 3.364-3.153-3.153-6.184-26.205-3.986-30.312.876-1.637 1.848-9.334 2.16-17.105.703-17.498 13.76-40.57 13.76-24.314 0 1.773 1.063 3.191 2.393 3.191 1.316 0 2.393-.897 2.393-1.995 0-1.097 2.292-6.464 5.093-11.928 2.802-5.463 4.5-10.49 3.772-11.17-.727-.68-1.586-.52-1.908.358-2.21 6.022-7.334 11.968-10.311 11.968-8 0-26.58 23.96-24.036 30.994 2.493 6.894 2.34 11.926-.616 20.27-1.963 5.544-2.122 8.384-.77 13.78.935 3.739 1.3 8.406.808 10.373-1.196 4.79 7.328 16.306 14.986 20.246 3.191 1.642 7.915 5.21 10.498 7.929 3.345 3.52 5.183 4.447 6.383 3.219 1.192-1.22.492-2.743-2.39-5.197zm153.26-10.254c.013-2.853-.694-5.187-1.571-5.187-.878 0-1.585 3.411-1.572 7.58.018 5.483.453 6.918 1.572 5.187.85-1.317 1.558-4.728 1.571-7.58zm-135.62 1.994c0-1.316-1.394-2.393-3.097-2.393-3.712 0-5.723 2.587-2.897 3.727 3.811 1.536 5.994 1.05 5.994-1.334zm131.27-43.708c.99-3.786-1.077-7.326-3.43-5.872-1.947 1.204-2.395 6.138-.71 7.823 1.854 1.854 3.327 1.16 4.14-1.95zm-222.63-129.83c-.782-2.35-5.172-3.446-8.573-2.14-3.779 1.45-.914 4.135 4.411 4.135 3.151 0 4.596-.692 4.162-1.995zm-79.256-74.603c1.479 0 3.825-1.734 5.214-3.853 1.59-2.427 7.12-5.634 14.945-8.665 27.463-10.64 72.606-32.53 68.8-33.362-1.465-.32-6.289 1.254-10.72 3.5-10.662 5.403-12.947 5.278-12.947-.706 0-6.84-3.22-5.885-8.559 2.537-6.493 10.244-7.247 7.345-1.192-4.584 18.761-36.963 7.662-73.18-18.067-58.955-9.895 5.47-11.718 9.227-3.753 7.733 7.322-1.374 13.317 3.252 15.704 12.118 1.614 5.993 1.433 9.771-1.07 22.4-1.762 8.884-3.26 4.02-2.548-8.275.875-15.12-.187-20.293-4.442-21.644-4.936-1.566-6.904.654-3.283 3.703 3.769 3.174 7.479 16.083 5.846 20.339-1.538 4.006-4.11.194-4.145-6.142-.058-10.62-14.43-5.807-17.355 5.81-3.033 12.047-.978 16.98 7.073 16.98 5.284 0 4.871 2.773-.902 6.058-6.197 3.526-6.094 5.486.254 4.833 6.042-.62 7.678 2.265 2.57 4.532-15.212 6.75-25.9-18.242-16.618-38.862 4.92-10.93 2.418-10.145-9.906 3.113-11.622 12.502-12.021 13.44-8.928 21.002.992 2.424.715 2.862-1.313 2.084-15.663-6.01-13.167 24.365 2.732 33.244 4.134 2.309 1.816 5.486-4.003 5.486-4.973 0-6.369 2.65-2.233 4.236 1.354.52 2.348 2.113 2.21 3.54-.451 4.675.087 5.659 2.032 3.714 1.053-1.053 3.125-1.915 4.604-1.915zm1.46-22.34c-3.24-3.511-6.9-6.44-8.133-6.51-1.622-.091-1.69-.348-.245-.93 1.097-.443 1.995-1.823 1.995-3.066 0-3.726 2.954-2.56 5.393 2.127 1.255 2.414 4.146 6.13 6.424 8.257s4.141 4.462 4.141 5.187c0 3.05-4.07.897-9.575-5.066zm-26.25-30.236c2.45-2.441.828-20.888-1.93-21.947-3.687-1.414-4.89 1.098-6.078 12.686-1.123 10.958 2.315 14.933 8.007 9.261zm119.2-20.847c14.317-6.893 23.536-16.027 9.909-9.817-2.24 1.02-5.474 1.855-7.188 1.855-3.475 0-4.212-2.47-1.122-3.756 1.452-.605 1.234-1.45-.798-3.102-1.536-1.249-2.792-2.698-2.792-3.22 0-2.003-8.873-9.784-10.703-9.384-1.06.231-3.053-1.758-4.43-4.42s-3.285-4.842-4.242-4.842c-1.027 0-.683 1.61.84 3.933 1.417 2.163 2.576 5.298 2.576 6.966 0 1.668 1.506 4.947 3.347 7.286 2.338 2.973 2.863 4.84 1.745 6.2-10.103 12.277-2.4 19.647 12.857 12.302zm373.42-2.377c-.59-2.356-5.604-1.94-6.429.533-.486 1.46.476 1.962 3.059 1.596 2.073-.293 3.589-1.251 3.37-2.129zm-526.32-10.19c1.468-2.377-2.238-4.207-24.624-12.16-28.146-10-43.135-17.664-55.853-28.559-9.831-8.423-14.362-10.772-14.362-7.445 0 3.86 25.43 23.35 38.26 29.32 28.973 13.486 54.612 22.025 56.578 18.844zm31.9-17.32c4.84-14.52 10.085-18.233 33.983-24.06 11.57-2.82 35.972-9.447 54.23-14.724 36.12-10.441 53.141-13.345 53.141-9.07 0 3.324-60.838 23.24-98.435 32.226-14.339 3.426-21.24 7.94-10.079 6.59 9.33-1.128 51.672-13.146 82.636-23.453 24.54-8.169 29.05-8.708 29.094-3.48.021 2.42.255 2.486 1.572.45 4.162-6.441-1.63-23.476-9.247-27.193-5.171-2.524-31.847-3.197-56.979-1.437-9.654.676-35.865 2.017-58.246 2.98-50.042 2.154-64.072 3.795-73.402 8.585-6.86 3.522-10.557 9.046-6.105 9.12 3.875.066 10.01 6.058 10.05 9.817.038 3.445.616 3.68 8.02 3.276 10.457-.572 19.292 4.31 17.538 9.69-3.868 11.866-3.12 15.072 5.475 23.489 9.765 9.561 12.8 9.053 16.753-2.806zm-13.14-33.494c.588-3.053 8.505-6.526 10.443-4.581 1.494 1.499-5.382 7.34-8.64 7.34-1.354 0-2.11-1.159-1.803-2.759zm-20.254 37.882c1.058-1.712-2.349-3.384-23.13-11.352-26.872-10.303-42.11-18.276-54.057-28.282-12.05-10.093-14.562-11.428-14.562-7.74 0 10.046 39.698 32.52 84.577 47.883 3.892 1.332 6.132 1.173 7.172-.51zm288.78-20.733c4.636-1.762 5.44-4.817 1.267-4.808-2.988.006-13.165 5.668-13.165 7.324 0 1.083 5.478-.075 11.898-2.516zm-320.28-18.37c-3.559-5.494-7.594-7.44-7.594-3.661 0 2.098 7.6 9.226 9.837 9.226.75 0-.26-2.504-2.243-5.565zm-47.489-30.942c0-.77-1.013-2.241-2.251-3.269-2.501-2.075-5.059.283-3.334 3.074 1.215 1.966 5.585 2.119 5.585.195zm129.26-8.99c13.604-1.364 26.89-2.881 29.522-3.373 2.633-.49 9.814-1.494 15.958-2.229 34.046-4.07 49.485-6.537 50.983-8.146 1.236-1.328-.003-1.564-4.705-.896-3.51.499-22.54 2.793-42.288 5.098-19.748 2.306-36.982 4.612-38.299 5.124-4.277 1.666-6.936 1.99-23.937 2.925-9.215.506-18.4 1.255-20.412 1.664-5.567 1.13-2.404 4.055 3.382 3.125 2.784-.448 16.192-1.93 29.797-3.293zm166.17-40.757c10.857-2.677 21.536-5.467 23.73-6.198 2.194-.73 7.221-2.24 11.171-3.354 12.202-3.442 15.878-14.304 11.778-34.801-1.969-9.845-18.46-7.694-23.479 3.062-3.176 6.805-4.799 7.547-8.474 3.872-4.948-4.948-13.286-3.017-20.791 4.815-7.796 8.137-10.373 17.348-2.885 10.314 4.932-4.634 9.073-1.852 9.366 6.292.25 6.998 2.902 6.123 11.646-3.847 8.879-10.124 10.664-10.523 17.822-3.986 8.259 7.544 7.206 8.274-25.298 17.528-14.447 4.114-16.84 3.712-18.332-3.082-1.497-6.815-3.652-6.118-7.42 2.402-5.863 13.251-5.172 13.48 21.167 6.983zm125.12 712.52c-16.007-1.742-29.948-4.49-40.457-7.975-7.515-2.492 1.914-2.915 12.715-.571 7.22 1.567 22.505 3.682 33.967 4.7 21.827 1.94 25.85 2.888 20.735 4.892-3.802 1.489-3.615 1.496-26.96-1.046zm18.29-8.647c-9.215-.607-22.5-2.392-29.522-3.968-20.45-4.59-22.36-7.843-2.38-4.054 4.634.88 18.405 2.35 30.601 3.267 18.78 1.413 34.996 4.211 26.834 4.63-1.316.068-3.83.372-5.585.676-1.756.304-10.732.056-19.947-.55zm5.586-10.636c-14.92-1.676-37.501-6.002-37.501-7.183 0-1.958 4.964-1.736 23.139 1.035 8.776 1.338 22.24 2.844 29.92 3.346 7.68.502 13.964 1.567 13.964 2.366 0 1.359-18.834 1.637-29.522.436zm-7.717-12.582c-6.878-1.155-12.94-2.536-13.471-3.068-1.011-1.01 61.196.518 64.673 1.59 13.16 4.056-28.67 5.264-51.202 1.478zm31.654-8.344c-28.92-1.81-25.104-4.631 5.706-4.22 23.92.318 30.65 1.09 25.241 2.892-2.934.978-22.87 1.834-30.947 1.328zm-1.596-11.079c-17.584-2.304-10.169-3.935 20.743-4.561 21.443-.435 27.995-.113 27.511 1.351-1.098 3.322-31.81 5.365-48.254 3.21zm-.798-12.696c-10.964-2.282-5.441-3.76 14.442-3.865 11.805-.062 27.062-.623 33.904-1.245 13.222-1.203 18.115-.161 12.743 2.714-3.368 1.802-54.336 3.802-61.089 2.396zm11.172-11.41c-18.444-.735-17.758-3.508.876-3.538 14.993-.025 39.136-1.648 60.56-4.071 8.686-.982 9.352-.85 7.181 1.434-3.916 4.117-39.624 7.33-68.617 6.175zm4.786-12.648c0-.97 7.085-2.105 17.155-2.746 9.435-.6 24.283-2.122 32.995-3.382 19.306-2.79 24.538-2.932 22.205-.6-4.444 4.444-72.355 10.759-72.355 6.728zm-2.394-11.61c-.547-.884.656-1.615 2.698-1.639 15.795-.186 52.923-3.386 64.96-5.598 13.318-2.447 18.295-2.385 15.713.198-5.38 5.38-80.478 11.72-83.37 7.04zm13.694-10.94c-2.553-1.748 2.776-2.645 25.403-4.28 7.46-.54 21.463-2.32 31.118-3.958 21.595-3.663 28.196-1.563 9.575 3.047-17.322 4.288-62.257 7.817-66.096 5.19zm19.818-12.765c.878-.909 10.93-3.101 22.34-4.873s24.61-4.014 29.333-4.985c9.325-1.916 14.392-.088 8.498 3.067-7.128 3.815-63.434 10.17-60.171 6.791zm4.787-11.402c-.57-.923.955-1.596 3.617-1.596 6.233 0 36.57-5.55 52.1-9.532 6.948-1.78 13.009-2.861 13.47-2.4 3.665 3.665-20.59 10.458-47.98 13.438-19.042 2.071-19.98 2.075-21.207.09zm-.798-10.986c0-2.464 1.037-2.7 20.745-4.717 15.147-1.55 46.014-7.729 53.06-10.62 1.945-.799 2.793-.403 2.793 1.304 0 2.75-9.746 5.997-32.714 10.897-18.503 3.948-43.884 5.761-43.884 3.136zm14.362-12.79c1.317-.737 6.344-1.83 11.171-2.43 10.554-1.311 48.566-9.927 52.36-11.868 5.84-2.989 11.471-3.561 11.471-1.166 0 1.453-3.406 3.26-9.175 4.867-5.047 1.406-10.85 3.264-12.897 4.128-12.627 5.333-61.601 11.318-52.93 6.468zm13.778-10.985c-.428-.693 6.17-2.899 14.663-4.9a5888.074 5888.074 0 0028.738-6.86c11.756-2.847 16.852-3.042 14.358-.548-1.79 1.79-28.379 8.958-38.824 10.466-6.143.887-12.742 1.948-14.663 2.358-1.92.41-3.843.178-4.272-.516zm-12.968-8.305c-1.567-2.537-1.672-2.502 14.111-4.648 7.768-1.056 23.867-4.396 35.774-7.421 20.454-5.197 25.265-5.734 21.806-2.436-5.691 5.428-69.343 18.305-71.692 14.504zm22.427-14.223c-.58-.94.91-2.09 3.427-2.647 2.45-.542 14.507-3.522 26.795-6.622 31.075-7.84 30.06-7.662 29.21-5.11-1.739 5.213-56.854 18.55-59.43 14.378zm-.896-9.654c0-1.439 2.629-2.321 19.947-6.695 3.51-.886 15.593-4.494 26.849-8.018 19.749-6.181 23.357-6.695 21.075-3.003-3.394 5.491-67.872 22.322-67.872 17.716zm-222.2-224.56c-4-1.093-3.444-3.497 1.07-4.63 5.448-1.367 9.702-.259 9.702 2.527 0 2.433-5.578 3.522-10.772 2.103zm-42.687-5.48c-4.827-1.789-11.29-3.752-14.362-4.364-4.132-.823-5.585-1.936-5.585-4.277 0-4.989 19.104-5.404 28.676-.624 5.403 2.7 8.723 3.292 14.677 2.62 8.331-.938 13.298.746 13.298 4.51 0 6.123-22.417 7.427-36.703 2.134zm98.255-211.39c-1.38-1.38-2.508-2.78-2.508-3.114 0-3.516 4.25-18.926 6.618-24 1.664-3.564 2.83-8.135 2.593-10.156-.358-3.028.689-4.03 5.95-5.694 9.682-3.065 21.542-8.76 21.542-10.345 0-.776-2.333-.684-5.186.204s-6.443 1.998-7.979 2.468c-7.866 2.408 4.435-8.981 16.861-15.611 11.056-5.898 24.56-7.409 23.762-2.657-.515 3.066.873 3.498 4.288 1.335 1.303-.825 1.86-2.797 1.347-4.763-.483-1.845-.268-3.354.478-3.354 2.93 0 6.324 7.436 6.324 13.857 0 12.375 5.508 14.747 21.543 9.276 17.998-6.14 29.984-8.947 31.543-7.39 1.592 1.592.103 2.152-11.595 4.36-2.194.413-6.143 1.793-8.776 3.066-2.634 1.272-7.66 3.028-11.171 3.901-5.003 1.245-7.074 2.886-9.575 7.587-1.756 3.298-4.628 6.263-6.383 6.587-4.757.879-7.181 3.395-7.181 7.452 0 1.993-.898 4.007-1.995 4.477-33.247 14.227-31.517 14.168-31.517 1.064 0-25.788-18.275-22.882-25.259 4.018-.91 3.506-2.449 9.426-3.42 13.156-1.92 7.381-5.65 8.929-10.305 4.274zm60.24-25.57c9.382-3.197 10.38-7.535 1.404-6.1-4.484.717-6.61.307-8.174-1.577-3.282-3.955-4.914-3.034-4.914 2.773 0 8.295.776 8.62 11.684 4.903zm-40.875 23.775c-1.917-3.222 4.075-27.77 6.66-27.279 5.804 1.101 2.816 26.887-3.252 28.055-1.454.28-2.987-.069-3.408-.776zm-380.01-36.66c-1.202-3.132 1.24-6.146 3.732-4.606 2.515 1.554 2.131 7.267-.488 7.267-1.223 0-2.683-1.197-3.244-2.66zm505.93-1.835c-1.25-2.021 7.37-3.654 9.315-1.764.945.917.543 1.473-1.066 1.473-1.42 0-3.646.408-4.945.906-1.3.499-2.787.222-3.304-.615zm-495.67-6.599c0-2.014 18.861-8.055 25.15-8.055 2.96 0 6.59-.618 8.068-1.374 3.964-2.028 17.848-3.573 17.848-1.987 0 3.63-31.899 13.446-34.891 10.738-2.617-2.368-3.553-2.396-9.538-.285-3.65 1.288-6.636 1.721-6.636.963zm169.95-10.768c-1.755-.444-4.269-1.742-5.585-2.884-1.317-1.143-9.575-3.227-18.352-4.633-34.1-5.46-49.8-11.75-39.256-15.73 4.988-1.883 6.655-4.36 2.935-4.36-8.855 0-14.512-17.709-6.038-18.905 6.307-.89 26.88 5.88 31.6 10.396 1.134 1.087 4.253 1.579 7.18 1.133 5.262-.802 56.113 22.512 58.981 27.04 1.875 2.962-2.884 5.423-12.779 6.609-5.011.6-10.547 1.328-12.303 1.616-1.755.29-4.628.162-6.383-.283zm291.23-8.28c0-.975.18-1.775.399-1.778.22-.003 7.58-1.38 16.357-3.06 21.26-4.07 40.693-5.796 40.693-3.613 0 2.455-3.543 3.247-26.42 5.907-11.361 1.32-22.99 2.833-25.842 3.36-3.315.612-5.186.318-5.186-.815zm-28.136-16.47c-10.235-6.98-15.177-12.431-11.269-12.431 2.827 0 23.863 14.627 24.671 17.155 1.173 3.667-3.53 2.01-13.402-4.723zm-19.459 3.067c-3.128-3.773-6.933-19.047-4.547-18.251 2.253.751 7.788 15.05 7.129 18.419-.403 2.06-.754 2.038-2.582-.168zm-211.65-1.69c-1.997-1.46-2.362-2.508-1.136-3.266 2.091-1.292 8.254 1.602 8.254 3.876 0 2.212-3.69 1.896-7.118-.61zm144.36-7.425c0-.877-1.257-1.644-2.793-1.704-2.008-.077-1.672-.592 1.197-1.833 2.194-.948 7.242-3.337 11.216-5.308 4.42-2.191 12.012-4.03 19.548-4.737 20.563-1.927 15.843 1.411-17.999 12.73-8.45 2.826-11.17 3.034-11.17.852zm146.65-8.199c-12.4-7.993-24.41-10.08-62.8-10.92-.834-.018-.713-.836.269-1.817 8.964-8.964 72.26 4.807 72.26 15.722 0 2.825-1.362 2.408-9.733-2.987zm-361.29-4.529c-1.755-.638-2.911-1.806-2.568-2.595 1.113-2.56-10.972-6.207-14.098-4.255-3.544 2.213-5.706.755-7.055-4.76-.84-3.428-.507-4.388 1.519-4.388 1.426 0 3.967-1.746 5.646-3.88 5.526-7.027 41.096-19.46 43.685-15.27.542.878 3.12 1.596 5.729 1.596 7.138 0 7.118 3.321-.099 16.206-8.539 15.247-11.684 17.893-19.73 16.607-3.413-.545-7.022-.34-8.02.454-1 .796-3.253.924-5.009.286zm209.85.16c0-.769 2.15-1.827 4.778-2.353 2.628-.525 7.795-2.413 11.483-4.195 4.338-2.096 7.253-2.693 8.255-1.69 1.003 1.002.751 1.826-.712 2.332-20.26 7.006-23.805 7.885-23.805 5.905zm52.949-20.16c-1.914-2.2-3.48-4.488-3.48-5.084s-2.914-4.539-6.477-8.764c-6.944-8.234-7.248-13.829-.403-7.404 4.372 4.103 16.455 21.61 16.455 23.84 0 2.564-2.562 1.476-6.095-2.588zm-244.05-21.43c-8.119-2.188-14.761-4.8-14.761-5.807 0-1.461 26.958 4.553 30.087 6.712 3.913 2.701-3.582 2.258-15.326-.906zm284.48 3.134c-1.7-2.75-22.01-8.292-34.336-9.37-13.084-1.144-16.059-3.944-5.033-4.736 13.212-.949 43.923 7.485 44.64 12.26.526 3.507-3.395 4.88-5.271 1.846zm-276.35-7.991c-4.526-1.61-12.425-3.826-17.554-4.924-11.205-2.398-14.516-4.682-6.788-4.682 5.891 0 36.3 8.851 38.874 11.316 2.522 2.413-5.642 1.452-14.533-1.71z"/></svg>